<?xml version="1.0" encoding="UTF-8"?>
<svg version="1.1" xmlns="http://www.w3.org/2000/svg" width="1024" height="1536">
<path d="M0 0 C337.92 0 675.84 0 1024 0 C1024 506.88 1024 1013.76 1024 1536 C686.08 1536 348.16 1536 0 1536 C0 1029.12 0 522.24 0 0 Z " fill="#00D5F7" transform="translate(0,0)"/>
<path d="M0 0 C28.12223525 0 28.12223525 0 36.9375 1.125 C38.00121826 1.25551758 39.06493652 1.38603516 40.16088867 1.52050781 C105.37268406 10.18276235 164.34483705 48.00095938 214.50805664 88.59838867 C220.90916905 93.76981143 227.47317053 98.71185916 234.09619141 103.59472656 C235.31466963 104.49413162 236.53073282 105.39682348 237.74365234 106.30371094 C260.21744281 123.09515193 284.86345141 136.0317683 311.68701172 144.27539062 C313.78701896 144.93327763 315.86507015 145.63076105 317.94140625 146.359375 C382.40382861 168.88993039 452.64217274 167.89352891 520 168 C520 167.34 520 166.68 520 166 C520.88631104 165.9906543 521.77262207 165.98130859 522.68579102 165.97167969 C555.74903142 165.54039245 588.40674968 162.6576244 621 157 C622.28519531 156.78988281 623.57039062 156.57976562 624.89453125 156.36328125 C655.64699976 150.84540976 685.68299131 139.98685331 714 127 C714.87962402 126.60200195 715.75924805 126.20400391 716.66552734 125.79394531 C729.81909398 119.82460695 742.37846464 113.02670209 754.87792969 105.79785156 C758.14109805 103.91874835 761.41651144 102.06261757 764.6953125 100.2109375 C776.61828909 93.46529679 788.43797941 86.58488871 800.125 79.4375 C820.41619907 67.03011785 841.03255542 55.22827737 862 44 C862.87994629 43.52578613 863.75989258 43.05157227 864.66650391 42.56298828 C914.92414589 15.52384292 966.82955419 1 1024 1 C1024 242.89 1024 484.78 1024 734 C686.08 734 348.16 734 0 734 C0 491.78 0 249.56 0 0 Z " fill="#17C132" transform="translate(0,802)"/>
<path d="M0 0 C28.12223525 0 28.12223525 0 36.9375 1.125 C38.00121826 1.25551758 39.06493652 1.38603516 40.16088867 1.52050781 C105.37268406 10.18276235 164.34483705 48.00095938 214.50805664 88.59838867 C220.90916905 93.76981143 227.47317053 98.71185916 234.09619141 103.59472656 C235.31466963 104.49413162 236.53073282 105.39682348 237.74365234 106.30371094 C260.21744281 123.09515193 284.86345141 136.0317683 311.68701172 144.27539062 C313.78701896 144.93327763 315.86507015 145.63076105 317.94140625 146.359375 C382.40382861 168.88993039 452.64217274 167.89352891 520 168 C520 167.34 520 166.68 520 166 C520.88631104 165.9906543 521.77262207 165.98130859 522.68579102 165.97167969 C555.74903142 165.54039245 588.40674968 162.6576244 621 157 C622.28519531 156.78988281 623.57039062 156.57976562 624.89453125 156.36328125 C655.64699976 150.84540976 685.68299131 139.98685331 714 127 C714.87962402 126.60200195 715.75924805 126.20400391 716.66552734 125.79394531 C729.81909398 119.82460695 742.37846464 113.02670209 754.87792969 105.79785156 C758.14109805 103.91874835 761.41651144 102.06261757 764.6953125 100.2109375 C776.61828909 93.46529679 788.43797941 86.58488871 800.125 79.4375 C820.41619907 67.03011785 841.03255542 55.22827737 862 44 C862.87994629 43.52578613 863.75989258 43.05157227 864.66650391 42.56298828 C914.92414589 15.52384292 966.82955419 1 1024 1 C1024 27.4 1024 53.8 1024 81 C1018.06 81.99 1012.12 82.98 1006 84 C1002.65166836 84.6988655 999.3680029 85.40463553 996.0625 86.25 C995.24168945 86.45906982 994.42087891 86.66813965 993.57519531 86.88354492 C979.33008387 90.64622482 965.9793382 96.1001787 952.97216797 102.97900391 C951.57012585 103.70484448 950.15622395 104.40797363 948.73486328 105.09521484 C941.86716142 108.42023932 935.44665138 112.30084722 929 116.375 C927.98421875 117.00921875 926.9684375 117.6434375 925.921875 118.296875 C920.28702463 121.8367169 914.77457151 125.50064351 909.34521484 129.34765625 C905.71410398 131.90599045 902.01519595 134.35942753 898.3125 136.8125 C891.78328077 141.13246852 891.78328077 141.13246852 885.3125 145.5390625 C862.06823646 161.54176917 836.73054241 174.00907362 810 183 C809.25733887 183.25201172 808.51467773 183.50402344 807.74951172 183.76367188 C792.5743241 188.82754813 776.94562934 191.98161493 761.31689453 195.27758789 C758.65417305 195.85752259 756.01922961 196.48113717 753.3828125 197.16796875 C750.41466448 197.89800978 747.66523737 198.33711963 744.625 198.5625 C741.18075044 198.79707936 741.18075044 198.79707936 738 200 C736.57080762 200.24109256 735.13417278 200.4389322 733.6953125 200.61328125 C732.37128418 200.78017456 732.37128418 200.78017456 731.02050781 200.95043945 C730.06499023 201.06991943 729.10947266 201.18939941 728.125 201.3125 C717.29566529 202.73699568 706.6702746 204.68346514 696 207 C694.547146 207.30695801 694.547146 207.30695801 693.06494141 207.62011719 C668.39841583 212.85798597 642.59381165 219.21380947 620.0625 230.8125 C619.39847168 231.15015381 618.73444336 231.48780762 618.05029297 231.83569336 C613.52742147 234.1584088 609.05522368 236.56780504 604.625 239.0625 C603.7441272 239.55230347 603.7441272 239.55230347 602.84545898 240.05200195 C600.24212175 241.539676 597.96601157 243.03109706 595.75 245.05859375 C588.47409792 251.70587929 580.20254356 250.65719131 570.91210938 250.28808594 C569.75771362 250.24224365 568.60331787 250.19640137 567.41394043 250.14916992 C564.42831206 250.01871482 561.44500371 249.86761712 558.4609375 249.70605469 C543.72788623 248.96727495 529.07384811 249.03527319 514.32946396 249.30093384 C507.40826349 249.41990725 500.48650599 249.50390628 493.56484795 249.59156799 C487.60228727 249.67070074 481.64185408 249.77426586 475.68066406 249.92578125 C469.81915022 250.07323722 463.95981995 250.15511379 458.09662247 250.19446564 C455.89496895 250.22065979 453.69344458 250.26973345 451.49288559 250.34392548 C435.69870682 250.8596676 426.79345495 247.93518778 414.84882641 237.51762962 C410.4633188 233.91773716 405.30619459 231.5175627 400.25 229 C399.18724854 228.45875488 398.12449707 227.91750977 397.02954102 227.35986328 C389.50971853 223.59220083 382.04189356 220.48420562 374 218 C372.64150455 217.49056421 371.28668966 216.97109345 369.9375 216.4375 C347.66891212 208.03282202 323.94930728 204.53933221 300.54042053 200.9453125 C248.02141381 192.87631343 248.02141381 192.87631343 224 186 C222.90316895 185.69400879 221.80633789 185.38801758 220.67626953 185.07275391 C180.30444306 173.69732884 145.74516053 155.33003654 113.25 128.95703125 C105.39319585 122.5944103 97.46367556 116.54723602 89 111 C88.07815918 110.39309326 88.07815918 110.39309326 87.13769531 109.77392578 C77.44447609 103.43605167 67.54982428 97.78838468 57 93 C55.83082031 92.46632813 54.66164062 91.93265625 53.45703125 91.3828125 C36.6224482 84.41802251 18.03588385 81.50299032 0 80 C0 53.6 0 27.2 0 0 Z " fill="#4ADC43" transform="translate(0,802)"/>
<path d="M0 0 C0 72.27 0 144.54 0 219 C-8.98461538 219 -8.98461538 219 -13.75 218.125 C-14.7709375 217.94453125 -15.791875 217.7640625 -16.84375 217.578125 C-18.94791667 217.19270833 -21.05208333 216.80729167 -23.15625 216.421875 C-27.66331946 215.6251708 -31.914482 214.8841743 -36.5 215.0625 C-40.37277861 214.99334324 -41.17920094 214.43862628 -44 212 C-51.82551822 209.68229244 -60.30287142 209.66588768 -68.41235352 209.51708984 C-73.29340746 209.36088806 -75.81820472 208.63298221 -80 206 C-83.14714432 205.10097585 -86.3443774 204.52405732 -89.5625 203.9375 C-90.45783447 203.76758545 -91.35316895 203.5976709 -92.27563477 203.42260742 C-94.84865228 202.93814611 -97.42389485 202.46771391 -100 202 C-101.16273438 201.78085938 -102.32546875 201.56171875 -103.5234375 201.3359375 C-109.66582512 200.23261318 -115.76372684 199.62854309 -121.9921875 199.24609375 C-125.03951615 198.99676686 -127.98845154 198.5202135 -131 198 C-132.47749638 197.83811779 -133.95679914 197.69183038 -135.4375 197.5625 C-145.74201789 196.57227606 -155.98440484 195.05601447 -166.1953125 193.3671875 C-168.98203112 192.92856845 -168.98203112 192.92856845 -171.7421875 193.0703125 C-174 193 -174 193 -176 191 C-178.60097868 190.41150675 -178.60097868 190.41150675 -181.75 190.0625 C-183.01585937 189.8975 -184.28171875 189.7325 -185.5859375 189.5625 C-186.29073242 189.47355469 -186.99552734 189.38460938 -187.72167969 189.29296875 C-190.14231448 188.98169981 -192.5593763 188.64948038 -194.9765625 188.3125 C-200.6484869 187.52226959 -206.32350887 186.7566807 -212 186 C-213.01578125 185.86416504 -214.0315625 185.72833008 -215.078125 185.58837891 C-229.62543698 183.64605994 -229.62543698 183.64605994 -244.25 182.5 C-249.84874643 182.21551085 -255.23199564 181.54122724 -260.75 180.625 C-272.26874106 178.73102607 -283.88195403 177.90935083 -295.51074219 177.00244141 C-296.27370605 176.94268127 -297.03666992 176.88292114 -297.82275391 176.8213501 C-299.2535781 176.71011176 -300.68455883 176.60085954 -302.11572266 176.49407959 C-305.28924079 176.25029995 -308.43069066 175.9421132 -311.58569336 175.51806641 C-317.88845007 174.70470589 -324.24115438 174.43237814 -330.58203125 174.0625 C-332.02427953 173.97696574 -333.46652495 173.89138318 -334.9087677 173.80575562 C-338.75098105 173.57896546 -342.59345719 173.35697368 -346.43604279 173.13658905 C-348.81352422 172.99994113 -351.19091564 172.86180372 -353.56829834 172.72344971 C-374.67742515 171.49977209 -395.76057071 170.50333055 -416.90942383 170.328125 C-417.71949387 170.31850739 -418.5295639 170.30888977 -419.36418152 170.29898071 C-420.83547345 170.28264007 -422.30689389 170.27450458 -423.77827454 170.27694702 C-427.35439949 170.23699348 -429.95297963 169.94287361 -433 168 C-429.15318731 158.27728661 -413.02091074 153.32878592 -404 149 C-403.07574219 148.54753906 -402.15148437 148.09507812 -401.19921875 147.62890625 C-366.65527545 131.24336549 -326.02272125 121.3691025 -287.99829102 118.25708008 C-285.93071097 118.10261822 -285.93071097 118.10261822 -284 117 C-281.63604525 116.72318002 -279.27186835 116.55485459 -276.8984375 116.37890625 C-273.90693599 115.98783395 -271.06928378 115.27311845 -268.14889526 114.53038025 C-264.91685259 113.73266264 -261.65958497 113.07372428 -258.3984375 112.40625 C-231.97627331 106.89403729 -206.36171376 99.90923222 -182 88 C-181.32904297 87.67821777 -180.65808594 87.35643555 -179.96679688 87.02490234 C-165.35719549 80.00964246 -151.36251734 72.18329381 -138 63 C-136.06452249 61.70530473 -134.12698427 60.41368529 -132.1875 59.125 C-131.1975 58.465 -130.2075 57.805 -129.1875 57.125 C-126.9375 55.625 -124.6875 54.125 -122.4375 52.625 C-121.82455078 52.21628662 -121.21160156 51.80757324 -120.58007812 51.38647461 C-119.31084679 50.54048411 -118.04131185 49.69494894 -116.77148438 48.84985352 C-113.62171472 46.75279943 -110.47699483 44.64902217 -107.34375 42.52734375 C-103.58338657 39.98598538 -99.80121516 37.47982699 -96 35 C-95.32662598 34.56042969 -94.65325195 34.12085938 -93.95947266 33.66796875 C-66.9616175 16.21023618 -32.85048861 0 0 0 Z " fill="#0FCB54" transform="translate(1024,883)"/>
<path d="M0 0 C31.31000304 0 60.14288653 10.78576424 86 28 C86.74185547 28.49258301 87.48371094 28.98516602 88.24804688 29.49267578 C97.68220238 35.82459016 106.54335805 42.75723906 115.30859375 49.9765625 C147.62642593 76.55617851 183.81014268 93.70263286 224 105 C224.97727051 105.28037109 225.95454102 105.56074219 226.96142578 105.84960938 C250.12187626 112.41018461 274.16726913 115.91446783 297.93359375 119.53125 C357.6862476 128.63150835 357.6862476 128.63150835 385 141 C385.69996094 141.31453125 386.39992188 141.6290625 387.12109375 141.953125 C401.79448912 148.58460891 418.00439792 155.97701431 430 167 C430 167.99 430 168.98 430 170 C429.09068726 170.03536362 428.18137451 170.07072723 427.24450684 170.10716248 C418.65263178 170.44191303 410.06089375 170.77995415 401.46929169 171.12164211 C397.05283832 171.29716953 392.63634321 171.47144829 388.21972656 171.64282227 C383.9531912 171.80841964 379.68680003 171.97736382 375.42048645 172.14857674 C373.79715113 172.21314437 372.17376832 172.27652948 370.55033875 172.33868217 C368.26714409 172.42630117 365.98415838 172.51821889 363.70117188 172.61108398 C362.40433472 172.66215805 361.10749756 172.71323212 359.7713623 172.76585388 C355.80667935 173.01200237 351.9380787 173.48665986 348 174 C345.33561988 174.16036552 342.68183938 174.29511407 340.015625 174.39453125 C338.44593606 174.46094213 336.87627571 174.52803139 335.30664062 174.59570312 C334.48397705 174.63058838 333.66131348 174.66547363 332.8137207 174.70141602 C316.66930833 175.4009406 300.59088472 176.51382561 284.5 178 C283.58609497 178.08367828 282.67218994 178.16735657 281.73059082 178.25357056 C271.61329322 179.18673598 261.52840537 180.24804825 251.45678711 181.59008789 C247.99095341 182.00107276 244.54692194 182.24877137 241.0625 182.4375 C231.11883302 183.03224189 221.26374555 184.35472222 211.3828125 185.58837891 C207.90322 186.0117762 204.42132548 186.40603725 200.9375 186.79296875 C199.79651855 186.92203613 198.65553711 187.05110352 197.47998047 187.18408203 C195.28176463 187.43202516 193.08287778 187.6741055 190.88330078 187.90966797 C189.89313965 188.0232666 188.90297852 188.13686523 187.8828125 188.25390625 C187.01027832 188.35002197 186.13774414 188.4461377 185.23876953 188.54516602 C182.72790906 188.90843877 182.72790906 188.90843877 180 191 C177.65576172 191.48657227 177.65576172 191.48657227 174.9296875 191.81640625 C173.95128906 191.94080078 172.97289062 192.06519531 171.96484375 192.19335938 C170.94519531 192.31517578 169.92554688 192.43699219 168.875 192.5625 C166.85110501 192.81009067 164.82763622 193.06119938 162.8046875 193.31640625 C161.90733887 193.42412354 161.00999023 193.53184082 160.08544922 193.64282227 C158.01703175 193.79043845 158.01703175 193.79043845 157 195 C155.33700732 195.1925868 153.66686383 195.3240386 151.99609375 195.4296875 C150.95203369 195.50131104 149.90797363 195.57293457 148.83227539 195.64672852 C147.71199951 195.72205811 146.59172363 195.7973877 145.4375 195.875 C129.30476296 196.53942413 129.30476296 196.53942413 114 201 C111.91815553 200.99119727 109.85507281 200.86993214 107.77734375 200.7421875 C105.18424496 200.98289709 103.38460736 201.50934655 100.95703125 202.3828125 C95.33115566 204.35555987 89.63321521 205.15026157 83.75 206 C75.04505603 207.32196514 66.53624818 208.83042406 58 211 C51.53267106 212.54322449 45.18166232 213.57645542 38.5703125 214.24609375 C37.76335938 214.32988281 36.95640625 214.41367188 36.125 214.5 C35.38507812 214.5721875 34.64515625 214.644375 33.8828125 214.71875 C31.91519886 214.91316522 31.91519886 214.91316522 30 216 C28.29297265 216.06996014 26.58331997 216.08440154 24.875 216.0625 C23.96492188 216.05347656 23.05484375 216.04445313 22.1171875 216.03515625 C21.41851563 216.02355469 20.71984375 216.01195312 20 216 C20 216.66 20 217.32 20 218 C17.22970414 218.50314563 14.4588348 219.00263838 11.6875 219.5 C10.90181641 219.64308594 10.11613281 219.78617188 9.30664062 219.93359375 C8.54931641 220.06894531 7.79199219 220.20429687 7.01171875 220.34375 C6.31522217 220.46943359 5.61872559 220.59511719 4.90112305 220.72460938 C3 221 3 221 0 221 C0 148.07 0 75.14 0 0 Z " fill="#0FCB54" transform="translate(0,882)"/>
<path d="M0 0 C1.17175781 -0.01836914 1.17175781 -0.01836914 2.3671875 -0.03710938 C3.13289063 -0.03904297 3.89859375 -0.04097656 4.6875 -0.04296875 C5.37199219 -0.04707764 6.05648438 -0.05118652 6.76171875 -0.05541992 C9 0.1875 9 0.1875 15 2.1875 C15 36.8375 15 71.4875 15 107.1875 C-1.83 108.1775 -1.83 108.1775 -19 109.1875 C-35.32630127 111.25502287 -51.15045922 113.84491593 -67 118.1875 C-67.90105469 118.43338867 -68.80210937 118.67927734 -69.73046875 118.93261719 C-103.13222124 128.21476389 -134.3649923 143.20965182 -164.24365234 160.59619141 C-166.99924516 162.18706421 -169.77079223 163.74516999 -172.55078125 165.29296875 C-183.10368665 171.17303479 -193.50691719 177.26132475 -203.8125 183.5625 C-224.3661694 196.12874599 -245.28894004 208.04885907 -266.36035156 219.72460938 C-267.96016312 220.6112234 -269.55881085 221.49994793 -271.15527344 222.39257812 C-279.26606646 226.92127798 -287.56750754 230.92415134 -296 234.8125 C-296.96107666 235.2561792 -297.92215332 235.6998584 -298.91235352 236.15698242 C-311.70895772 241.97949658 -324.66165538 246.93712217 -338.0625 251.1875 C-338.73385986 251.40127289 -339.40521973 251.61504578 -340.09692383 251.83529663 C-344.72510684 253.30628064 -349.36072494 254.75189769 -354 256.1875 C-355.01046387 256.50283691 -356.02092773 256.81817383 -357.06201172 257.14306641 C-373.41143886 262.17433012 -390.10587235 264.78062934 -407 267.1875 C-408.7332251 267.43741699 -408.7332251 267.43741699 -410.50146484 267.69238281 C-422.03520493 269.32964849 -433.32824895 270.74231915 -445 270.1875 C-443.09274603 261.48678904 -439.78843197 254.64621565 -432.42578125 249.328125 C-423.96761984 244.14209903 -416.76605611 243.56874248 -407 244.1875 C-404.2724992 244.90813001 -402.44476993 245.75641517 -400 247.1875 C-399.92523437 246.24390625 -399.85046875 245.3003125 -399.7734375 244.328125 C-398.54416147 232.32460616 -395.58976803 222.02415701 -385.83984375 214.07421875 C-372.00103857 204.88007446 -359.52026482 201.78383964 -343 203.1875 C-339.10135477 204.14368946 -334.92111661 205.26638339 -332 208.1875 C-331.90203125 207.23230469 -331.8040625 206.27710938 -331.703125 205.29296875 C-330.75237774 197.07228342 -329.33176382 189.83315205 -326 182.1875 C-325.73703125 181.52878906 -325.4740625 180.87007812 -325.203125 180.19140625 C-317.56322956 162.85749253 -302.05289474 150.37305349 -285 143.1875 C-283.77603516 142.64802734 -283.77603516 142.64802734 -282.52734375 142.09765625 C-273.20112528 138.62631936 -260.23623143 138.4959489 -251 142.1875 C-251.061875 141.300625 -251.12375 140.41375 -251.1875 139.5 C-251.04955916 125.76109201 -245.02628299 113.12530194 -235.6875 103.25 C-221.52072901 90.17484664 -205.95069407 85.41711088 -187.15087891 86.03369141 C-182.08667924 86.39583054 -177.50967807 87.93266096 -173 90.1875 C-173.07927734 88.45113281 -173.07927734 88.45113281 -173.16015625 86.6796875 C-173.15316958 82.14234175 -172.09183561 78.50386054 -170.4375 74.3125 C-170.1679248 73.61632568 -169.89834961 72.92015137 -169.62060547 72.20288086 C-167.20237902 66.22113483 -164.10521467 61.17678009 -160 56.1875 C-159.40574219 55.43210937 -158.81148437 54.67671875 -158.19921875 53.8984375 C-147.16785835 40.6059908 -129.37297905 29.41089255 -112 27.1875 C-94.93300777 25.94947984 -76.98838936 28.69620798 -63 39.1875 C-62.45085937 38.09695313 -62.45085937 38.09695313 -61.890625 36.984375 C-51.72057167 18.0971331 -35.21145286 7.47502409 -15 1.1875 C-9.99949384 0.07329326 -5.09885557 0.00420698 0 0 Z " fill="#7AFAFD" transform="translate(1009,695.8125)"/>
<path d="M0 0 C1.2384668 -0.01836914 1.2384668 -0.01836914 2.50195312 -0.03710938 C16.18372175 -0.06945398 28.65187954 5.10779661 38.8125 14.1875 C39.42738281 14.72117187 40.04226562 15.25484375 40.67578125 15.8046875 C55.33786424 29.39393515 58.93666321 47.19567062 59.8125 66.1875 C60.27398437 65.86136719 60.73546875 65.53523437 61.2109375 65.19921875 C72.96642908 57.32350403 86.02332475 56.4617191 99.734375 58.87890625 C114.22381883 62.65944891 126.53748226 71.02903986 134.2421875 84.01953125 C139.88104549 95.3954363 141.62864226 106.61831652 141.8125 119.1875 C142.9675 118.56875 144.1225 117.95 145.3125 117.3125 C157.35856379 111.37370631 170.22515807 111.99701038 182.8125 116.1875 C190.59819911 119.7130996 196.75455464 125.25620158 202.8125 131.1875 C203.36679688 131.70570313 203.92109375 132.22390625 204.4921875 132.7578125 C214.27139559 142.85418409 219.29705115 158.54846039 220.8125 172.1875 C221.82957031 171.68089844 221.82957031 171.68089844 222.8671875 171.1640625 C239.36770804 163.25661083 255.37035578 164.09786409 272.66796875 168.99609375 C287.63022946 174.34825378 298.89349512 186.23937344 305.8125 200.1875 C308.43544743 206.56712305 309.94881655 212.78683672 309.91015625 219.70703125 C309.90693359 220.72861328 309.90371094 221.75019531 309.90039062 222.80273438 C309.89201172 223.85783203 309.88363281 224.91292969 309.875 226 C309.87048828 227.07443359 309.86597656 228.14886719 309.86132812 229.25585938 C309.84957729 231.89979683 309.83314787 234.54361952 309.8125 237.1875 C310.885 236.713125 311.9575 236.23875 313.0625 235.75 C321.8777669 231.9976001 331.43060043 232.0274705 340.5 235.15234375 C348.61011976 238.7827183 354.66852894 244.96114242 358.03515625 253.16796875 C360.46742137 260.46476411 361.53604589 267.51589844 361.8125 275.1875 C362.885 274.548125 363.9575 273.90875 365.0625 273.25 C370.98793117 269.71753142 377.03351537 269.52703059 383.8125 270.1875 C392.50727803 272.64501023 398.35293246 278.49436287 402.8125 286.1875 C404.87608936 290.97239645 405.87877509 294.97493695 405.8125 300.1875 C363.80941859 301.12026205 314.78953807 289.57721639 276.8125 272.1875 C276.01150879 271.8270459 275.21051758 271.4665918 274.38525391 271.09521484 C246.7873976 258.61152392 223.35939864 241.34044038 199.77246094 222.56347656 C189.22802812 214.18812961 178.46710176 206.31178807 167.26757812 198.83496094 C164.78624032 197.16987865 162.32184867 195.48189244 159.859375 193.7890625 C119.26971161 166.05526956 74.47841007 143.4513747 25.1875 137.5 C23.73428345 137.32078003 23.73428345 137.32078003 22.25170898 137.13793945 C10.76222329 135.86399487 -0.56383678 135.6718193 -12.1875 135.1875 C-12.1875 90.9675 -12.1875 46.7475 -12.1875 1.1875 C-8.094735 -0.176755 -4.28627047 0.00326947 0 0 Z " fill="#7AFAFD" transform="translate(12.1875,666.8125)"/>
<path d="M0 0 C1.66015625 1.6640625 1.66015625 1.6640625 1.66015625 3.6640625 C2.23507812 3.90511719 2.81 4.14617187 3.40234375 4.39453125 C6.09630426 5.90930143 7.74053168 7.66372672 9.78515625 9.9765625 C10.80996094 11.11544922 10.80996094 11.11544922 11.85546875 12.27734375 C13.6690734 14.67585553 14.68792978 16.83257818 15.66015625 19.6640625 C16.32015625 19.6640625 16.98015625 19.6640625 17.66015625 19.6640625 C18.9565214 22.53696623 20.24638724 25.41274412 21.53515625 28.2890625 C22.08236328 29.50142578 22.08236328 29.50142578 22.640625 30.73828125 C27.78872122 42.25129643 30.00414248 52.67208671 29.78515625 65.2890625 C29.77613281 66.29324219 29.76710938 67.29742187 29.7578125 68.33203125 C29.73453371 70.77630376 29.70184112 73.22004658 29.66015625 75.6640625 C28.5 75.14005859 28.5 75.14005859 27.31640625 74.60546875 C21.44717448 72.0413118 16.12361613 69.82352286 9.66015625 69.6640625 C8.46390625 69.61378906 7.26765625 69.56351562 6.03515625 69.51171875 C-11.42848843 68.98111368 -24.42368121 73.981515 -37.21484375 85.9140625 C-49.62635454 99.20385525 -53.65152712 114.15888479 -55.33984375 131.6640625 C-58.96398374 129.89298957 -62.43699689 127.90458153 -65.92578125 125.8828125 C-74.63260047 121.48713678 -84.49849902 121.32396237 -93.83984375 123.9140625 C-100.03926708 126.08538262 -105.22251183 129.51739759 -109.33984375 134.6640625 C-111.53681395 140.68185044 -111.83688025 147.32407527 -112.33984375 153.6640625 C-117.47998222 152.35413153 -120.67073184 149.97724478 -124.40234375 146.3515625 C-125.15741211 145.6409668 -125.15741211 145.6409668 -125.92773438 144.91601562 C-127.41217105 143.51223398 -128.87781885 142.09113359 -130.33984375 140.6640625 C-131.17386719 139.8596875 -132.00789062 139.0553125 -132.8671875 138.2265625 C-139.80778921 131.03377463 -146.27068456 123.01915958 -150.33984375 113.84765625 C-151.3039881 111.58376548 -151.3039881 111.58376548 -152.86328125 109.4140625 C-154.8197858 105.77020217 -155.34449502 102.28350221 -155.96484375 98.2265625 C-156.08601562 97.48857422 -156.2071875 96.75058594 -156.33203125 95.99023438 C-156.56902372 94.5412315 -156.80027715 93.09127668 -157.02539062 91.64038086 C-157.2913366 89.96892695 -157.59643563 88.30377406 -157.91015625 86.640625 C-160.83534073 66.37707436 -156.83596584 43.71609658 -147.33984375 25.6640625 C-146.67984375 25.0040625 -146.01984375 24.3440625 -145.33984375 23.6640625 C-144.69732025 21.59532216 -144.69732025 21.59532216 -144.33984375 19.6640625 C-143.67984375 19.6640625 -143.01984375 19.6640625 -142.33984375 19.6640625 C-142.07171875 18.7153125 -141.80359375 17.7665625 -141.52734375 16.7890625 C-140.33984375 13.6640625 -140.33984375 13.6640625 -137.33984375 11.6640625 C-136.31372426 10.01334854 -135.31676232 8.34436244 -134.33984375 6.6640625 C-131.63153714 3.00933666 -128.776758 0.17451245 -125.21484375 -2.6484375 C-124.34601562 -3.34582031 -123.4771875 -4.04320312 -122.58203125 -4.76171875 C-120.33984375 -6.3359375 -120.33984375 -6.3359375 -118.33984375 -6.3359375 C-118.33984375 -6.9959375 -118.33984375 -7.6559375 -118.33984375 -8.3359375 C-116.92656246 -9.15431192 -115.50906029 -9.96539969 -114.08984375 -10.7734375 C-113.3009375 -11.22589844 -112.51203125 -11.67835938 -111.69921875 -12.14453125 C-109.55150907 -13.22905352 -107.68779314 -13.86742466 -105.33984375 -14.3359375 C-105.33984375 -14.9959375 -105.33984375 -15.6559375 -105.33984375 -16.3359375 C-103.35984375 -16.3359375 -101.37984375 -16.3359375 -99.33984375 -16.3359375 C-99.33984375 -16.9959375 -99.33984375 -17.6559375 -99.33984375 -18.3359375 C-97.02948972 -18.99038561 -94.71700079 -19.63453025 -92.40234375 -20.2734375 C-91.76232422 -20.45583984 -91.12230469 -20.63824219 -90.46289062 -20.82617188 C-59.15066423 -29.39419402 -24.82559389 -20.2641433 0 0 Z " fill="#FDC908" transform="translate(954.33984375,228.3359375)"/>
<path d="M0 0 C13.49292254 12.61175209 18.0716175 27.57912459 18.99609375 45.55859375 C19.39699219 45.16027344 19.79789063 44.76195312 20.2109375 44.3515625 C27.51872195 37.54090625 34.92046379 35.83477573 44.83984375 36.078125 C51.23555448 37.05172948 55.65755669 40.84641325 59.87109375 45.55859375 C63.74706741 51.03055657 65.54719264 56.09426574 66.99609375 62.55859375 C67.94484375 62.22859375 68.89359375 61.89859375 69.87109375 61.55859375 C79.74178447 58.80904263 90.40807973 60.71378661 99.43359375 65.30859375 C100.27921875 66.05109375 101.12484375 66.79359375 101.99609375 67.55859375 C102.47949219 67.98269531 102.96289062 68.40679687 103.4609375 68.84375 C108.09018364 73.85769803 107.47590058 79.810002 107.3671875 86.23046875 C106.99609375 89.55859375 106.99609375 89.55859375 104.99609375 92.55859375 C102.04995362 92.85272175 99.31404399 92.94952484 96.36557007 92.9193573 C95.00930919 92.92320221 95.00930919 92.92320221 93.62564909 92.9271248 C90.57756596 92.93209002 87.52997155 92.91552473 84.48193359 92.89916992 C82.30432649 92.89832424 80.12671854 92.89879763 77.94911194 92.90049744 C72.02165916 92.90136112 66.09438709 92.8836751 60.16697645 92.86277556 C53.97832108 92.84407076 47.78966194 92.84226323 41.60098267 92.83869934 C30.54210191 92.82989207 19.48329622 92.80820636 8.42444976 92.77977119 C-5.58968751 92.74392769 -19.60381445 92.72538866 -33.61798787 92.70956457 C-61.08001769 92.67817415 -88.54193296 92.62313928 -116.00390625 92.55859375 C-116.00390625 71.43859375 -116.00390625 50.31859375 -116.00390625 28.55859375 C-110.10844474 25.61086299 -104.49247686 25.82718122 -98.00390625 26.55859375 C-93.94392636 28.18379403 -91.06914673 30.49335327 -88.00390625 33.55859375 C-87.77316406 32.37523437 -87.54242188 31.191875 -87.3046875 29.97265625 C-84.52399314 16.25359604 -81.02949446 5.01588709 -70.00390625 -4.44140625 C-48.17291079 -18.23879941 -20.09331995 -16.33072167 0 0 Z " fill="#B8FEFE" transform="translate(116.00390625,221.44140625)"/>
<path d="M0 0 C1.41015645 1.17045535 2.80682856 2.35740527 4.1875 3.5625 C5.14462891 4.36107422 5.14462891 4.36107422 6.12109375 5.17578125 C11.99455132 10.46820861 15.71799976 17.78188296 17.1875 25.5625 C17.25298492 27.14461573 17.27328381 28.72920081 17.25 30.3125 C17.24097656 31.11171875 17.23195313 31.9109375 17.22265625 32.734375 C17.20525391 33.63929688 17.20525391 33.63929688 17.1875 34.5625 C17.85136719 34.21316406 18.51523437 33.86382812 19.19921875 33.50390625 C20.08222656 33.04886719 20.96523438 32.59382813 21.875 32.125 C22.74511719 31.67253906 23.61523438 31.22007812 24.51171875 30.75390625 C27.1875 29.5625 27.1875 29.5625 32.1875 28.5625 C32.1875 51.0025 32.1875 73.4425 32.1875 96.5625 C15.06254332 96.73554179 -2.06240378 96.90453665 -19.1875 97.0625 C-20.47452316 97.07437725 -21.76154633 97.0862545 -23.08757019 97.09849167 C-63.41312628 97.46772411 -103.73494122 97.65476753 -144.0625 97.625 C-145.23073051 97.62414398 -146.39896103 97.62328796 -147.60259247 97.62240601 C-161.67257842 97.61130444 -175.74254017 97.59168941 -189.8125 97.5625 C-188.67843282 89.25244176 -187.09566157 84.09025064 -180.4375 78.6875 C-174.69200779 74.32255009 -169.4627585 73.28343391 -162.3125 73.3125 C-161.0440625 73.30734375 -159.775625 73.3021875 -158.46875 73.296875 C-154.90859683 73.55551861 -152.12504615 74.27428761 -148.8125 75.5625 C-149.1425 74.9025 -149.4725 74.2425 -149.8125 73.5625 C-150.39438612 66.40394747 -150.54204745 58.40433804 -146.25 52.36328125 C-141.5165226 47.2003553 -136.46631008 44.56543263 -129.8125 42.5625 C-129.18859375 42.37300781 -128.5646875 42.18351562 -127.921875 41.98828125 C-116.78001273 39.73927572 -107.00688071 42.04310974 -97.51171875 48.0078125 C-95.90374289 49.13565128 -94.34959037 50.33981448 -92.8125 51.5625 C-92.86470703 50.68851562 -92.86470703 50.68851562 -92.91796875 49.796875 C-93.44513936 33.83113647 -86.74653059 19.00511388 -76.59375 6.921875 C-55.9290678 -14.95048343 -24.21740935 -18.25556834 0 0 Z " fill="#A9FDFD" transform="translate(991.8125,308.4375)"/>
<path d="M0 0 C2.8125 2.4375 2.8125 2.4375 3.8125 4.4375 C3.9046488 5.92001264 3.93443101 7.4066255 3.93275452 8.89199829 C3.93481651 10.29707893 3.93481651 10.29707893 3.93692017 11.73054504 C3.93332489 12.76128647 3.92972961 13.79202789 3.92602539 14.85400391 C3.92617142 15.93694229 3.92631744 17.01988068 3.9264679 18.13563538 C3.92576915 21.72846453 3.91797852 25.32124236 3.91015625 28.9140625 C3.90829193 31.39985119 3.9068681 33.88564025 3.90586853 36.37142944 C3.90243565 42.25396397 3.89454773 48.13647943 3.88451904 54.01900613 C3.87225492 61.37204246 3.86687626 68.72508107 3.86132812 76.078125 C3.85059268 89.19792609 3.83370886 102.31771188 3.8125 115.4375 C-0.91465465 115.46594767 -5.27229028 115.4191063 -9.9375 114.5625 C-11.46890625 114.29179688 -11.46890625 114.29179688 -13.03125 114.015625 C-15.13541667 113.63020833 -17.23958333 113.24479167 -19.34375 112.859375 C-23.85081946 112.0626708 -28.101982 111.3216743 -32.6875 111.5 C-36.56027861 111.43084324 -37.36670094 110.87612628 -40.1875 108.4375 C-48.01301822 106.11979244 -56.49037142 106.10338768 -64.59985352 105.95458984 C-69.48090746 105.79838806 -72.00570472 105.07048221 -76.1875 102.4375 C-79.33464432 101.53847585 -82.5318774 100.96155732 -85.75 100.375 C-86.64533447 100.20508545 -87.54066895 100.0351709 -88.46313477 99.86010742 C-91.03615228 99.37564611 -93.61139485 98.90521391 -96.1875 98.4375 C-97.35023438 98.21835938 -98.51296875 97.99921875 -99.7109375 97.7734375 C-105.85332512 96.67011318 -111.95122684 96.06604309 -118.1796875 95.68359375 C-121.22701615 95.43426686 -124.17595154 94.9577135 -127.1875 94.4375 C-128.66499638 94.27561779 -130.14429914 94.12933038 -131.625 94 C-141.92951789 93.00977606 -152.17190484 91.49351447 -162.3828125 89.8046875 C-165.16953112 89.36606845 -165.16953112 89.36606845 -167.9296875 89.5078125 C-170.1875 89.4375 -170.1875 89.4375 -172.1875 87.4375 C-174.84287372 86.87229997 -177.47894713 86.69961802 -180.1875 86.4375 C-180.66858275 85.02148286 -181.14728141 83.60465563 -181.625 82.1875 C-181.89183594 81.39859375 -182.15867187 80.6096875 -182.43359375 79.796875 C-185.27037822 70.91906247 -185.32588857 62.23635072 -181.37109375 53.68359375 C-180.98050781 52.94238281 -180.58992187 52.20117188 -180.1875 51.4375 C-179.84847656 50.78910156 -179.50945313 50.14070313 -179.16015625 49.47265625 C-175.01884584 42.73750018 -167.47537166 38.98414759 -160.1875 36.4375 C-150.34944962 35.79238194 -142.76118136 38.05890525 -135.1875 44.4375 C-133.24757647 46.68871359 -131.76061021 48.90022547 -130.1875 51.4375 C-130.18492187 50.56609375 -130.18234375 49.6946875 -130.1796875 48.796875 C-129.84019143 38.3403959 -126.94259012 31.07013517 -121.1875 22.4375 C-120.5275 22.4375 -119.8675 22.4375 -119.1875 22.4375 C-118.96449219 21.85226562 -118.74148438 21.26703125 -118.51171875 20.6640625 C-116.78840616 17.76645726 -114.84839515 16.59618468 -112 14.8125 C-111.07832031 14.22210937 -110.15664063 13.63171875 -109.20703125 13.0234375 C-100.82345869 8.62016394 -90.94807164 8.0682703 -81.71875 9.9375 C-79.75 10.625 -79.75 10.625 -76.1875 12.4375 C-75.52492188 12.76621094 -74.86234375 13.09492187 -74.1796875 13.43359375 C-67.82088838 16.92730657 -62.5053567 22.48392991 -60.1875 29.4375 C-60.05794922 28.385625 -60.05794922 28.385625 -59.92578125 27.3125 C-58.927325 20.57063029 -57.28367155 15.86702945 -53.1875 10.4375 C-52.48625 9.426875 -51.785 8.41625 -51.0625 7.375 C-39.20285125 -6.36713268 -15.18156167 -10.55837005 0 0 Z " fill="#00B756" transform="translate(1020.1875,986.5625)"/>
<path d="M0 0 C7.1458438 4.66784958 12.75221375 11.55621619 14.90625 19.8984375 C15.48566252 24.56345115 15.77260524 29.20082401 15.90625 33.8984375 C16.751875 33.1353125 17.5975 32.3721875 18.46875 31.5859375 C24.2349991 26.83249562 29.56607561 25.19937327 36.90625 25.8984375 C43.36153988 28.30334942 47.89109869 32.7389141 50.90625 38.8984375 C51.19921875 42.44921875 51.19921875 42.44921875 51.09375 46.2109375 C51.05314453 48.09232422 51.05314453 48.09232422 51.01171875 50.01171875 C50.97691406 50.96433594 50.94210938 51.91695312 50.90625 52.8984375 C51.30714844 52.37894531 51.70804687 51.85945313 52.12109375 51.32421875 C57.15504226 45.14878532 62.89444045 40.42376278 70.90625 38.8984375 C77.29519757 38.34194625 82.15751534 38.80296499 87.90625 41.8984375 C88.916875 42.4140625 89.9275 42.9296875 90.96875 43.4609375 C98.3835452 49.6136399 100.87870527 57.57966977 101.90625 66.8984375 C102.298125 66.0115625 102.69 65.1246875 103.09375 64.2109375 C105.01411501 60.7013049 106.95285063 58.57710204 109.90625 55.8984375 C110.855 55.0115625 111.80375 54.1246875 112.78125 53.2109375 C119.24949049 48.42443953 126.14000758 48.3555087 133.90625 48.8984375 C140.52152488 50.19555022 145.60568062 54.53569057 150.21875 59.2734375 C154.86777086 66.50524772 155.49926697 73.47809889 155.90625 81.8984375 C150.77612539 83.50749233 145.87008847 84.39559088 140.53125 84.9609375 C135.83862413 85.07453741 135.83862413 85.07453741 131.90625 86.8984375 C130.24325732 87.0910243 128.57311383 87.2224761 126.90234375 87.328125 C125.85828369 87.39974854 124.81422363 87.47137207 123.73852539 87.54516602 C122.05811157 87.6581604 122.05811157 87.6581604 120.34375 87.7734375 C104.21101296 88.43786163 104.21101296 88.43786163 88.90625 92.8984375 C86.82440553 92.88963477 84.76132281 92.76836964 82.68359375 92.640625 C80.09049496 92.88133459 78.29085736 93.40778405 75.86328125 94.28125 C70.23740566 96.25399737 64.53946521 97.04869907 58.65625 97.8984375 C49.95130603 99.22040264 41.44249818 100.72886156 32.90625 102.8984375 C26.43892106 104.44166199 20.08791232 105.47489292 13.4765625 106.14453125 C12.66960938 106.22832031 11.86265625 106.31210938 11.03125 106.3984375 C9.92136719 106.50671875 9.92136719 106.50671875 8.7890625 106.6171875 C6.82144886 106.81160272 6.82144886 106.81160272 4.90625 107.8984375 C3.19922265 107.96839764 1.48956997 107.98283904 -0.21875 107.9609375 C-1.58386719 107.94740234 -1.58386719 107.94740234 -2.9765625 107.93359375 C-4.02457031 107.91619141 -4.02457031 107.91619141 -5.09375 107.8984375 C-5.09375 108.5584375 -5.09375 109.2184375 -5.09375 109.8984375 C-7.86404586 110.40158313 -10.6349152 110.90107588 -13.40625 111.3984375 C-14.19193359 111.54152344 -14.97761719 111.68460938 -15.78710938 111.83203125 C-16.54443359 111.96738281 -17.30175781 112.10273437 -18.08203125 112.2421875 C-19.12677612 112.43071289 -19.12677612 112.43071289 -20.19262695 112.62304688 C-22.09375 112.8984375 -22.09375 112.8984375 -25.09375 112.8984375 C-25.09375 74.9484375 -25.09375 36.9984375 -25.09375 -2.1015625 C-14.36291606 -4.78427099 -9.62288705 -5.17594682 0 0 Z " fill="#00B756" transform="translate(25.09375,990.1015625)"/>
<path d="M0 0 C0.99 0 1.98 0 3 0 C2.125 5.875 2.125 5.875 1 7 C-1.84470832 7.097926 -4.66513904 7.12992493 -7.51026917 7.12025452 C-8.41358866 7.12110894 -9.31690816 7.12196337 -10.24760097 7.12284368 C-13.29863191 7.12450126 -16.34960883 7.1189726 -19.40063477 7.11352539 C-21.57809447 7.11324355 -23.75555427 7.11340119 -25.93301392 7.1139679 C-31.86459197 7.114256 -37.79614999 7.10835716 -43.72772336 7.10139394 C-49.91906207 7.09516258 -56.11040119 7.09455677 -62.30174255 7.09336853 C-73.36713847 7.09043182 -84.43252607 7.08320169 -95.49791818 7.07372581 C-109.51986384 7.06178151 -123.54180835 7.05559925 -137.56375802 7.05032361 C-165.04251049 7.03985775 -192.52125473 7.02225706 -220 7 C-220 6.01 -220 5.02 -220 4 C-213.14200605 3.19005376 -206.40400301 2.85943613 -199.50146484 2.88647461 C-198.50514038 2.88632858 -197.50881592 2.88618256 -196.4822998 2.8860321 C-193.22515603 2.88672265 -189.96807115 2.89447445 -186.7109375 2.90234375 C-184.43836498 2.90421098 -182.16579206 2.90563344 -179.89321899 2.90663147 C-173.93881094 2.9104326 -167.98442764 2.92024216 -162.0300293 2.93133545 C-155.94320002 2.94160146 -149.85636671 2.94614017 -143.76953125 2.95117188 C-131.84634335 2.96186676 -119.92317374 2.97891405 -108 3 C-108 3.33 -108 3.66 -108 4 C-102.72 4 -97.44 4 -92 4 C-92 3.67 -92 3.34 -92 3 C-84.75920365 2.97453738 -77.51841895 2.95708594 -70.27758789 2.94506836 C-67.81697152 2.9400556 -65.35635811 2.93324369 -62.89575195 2.92456055 C-59.34846261 2.91236068 -55.80121283 2.90674097 -52.25390625 2.90234375 C-51.1629213 2.89718246 -50.07193634 2.89202118 -48.94789124 2.88670349 C-42.87513837 2.88626262 -37.02295691 3.22397605 -31 4 C-21.02732656 4.50607597 -10.95589226 3.57775126 -1 3 C-0.67 2.01 -0.34 1.02 0 0 Z " fill="#A4FAF8" transform="translate(220,307)"/>
<path d="M0 0 C-0.31121285 8.46498944 -1.14617298 14.94781423 -7.125 21.234375 C-13.96236487 27.57693057 -18.43392444 28.46363967 -27.7265625 28.421875 C-32.71018474 27.77959433 -35.54687723 25.49564892 -39 22 C-39.83724609 21.30003906 -39.83724609 21.30003906 -40.69140625 20.5859375 C-42.43735525 18.46995155 -42.37056008 17.14845908 -42.3125 14.4375 C-42.30863281 13.65246094 -42.30476562 12.86742187 -42.30078125 12.05859375 C-42 10 -42 10 -40 8 C-33.74480533 6.74367126 -29.16288629 8.50492573 -23.84765625 11.7109375 C-22 13 -22 13 -20 15 C-19.82984375 14.35933594 -19.6596875 13.71867187 -19.484375 13.05859375 C-17.93311179 7.52190433 -16.31884253 2.72683633 -13 -2 C-8.58304301 -4.27971974 -4.09773751 -2.12700358 0 0 Z " fill="#00B141" transform="translate(280,1167)"/>
<path d="M0 0 C2.3265812 2.3265812 2.34237251 2.88971833 2.4375 6.0625 C2.27357794 12.43497028 -0.40562361 17.34438297 -4.8203125 21.86328125 C-10.46175802 26.80839772 -14.1724063 27.41045337 -21.7265625 27.34375 C-27.89623545 26.69586072 -30.57690638 23.67852068 -34.4375 19.125 C-36.27996398 15.44007205 -36.4695854 13.06974016 -36 9 C-34 7 -34 7 -30.75 6.625 C-24.55071926 7.24492807 -20.68129218 11.14481821 -16 15 C-15.68869141 14.12988281 -15.68869141 14.12988281 -15.37109375 13.2421875 C-12.83692569 6.81664003 -8.2380385 -1.88298023 0 0 Z " fill="#55CF0E" transform="translate(104,1369)"/>
<path d="M0 0 C1.8125 1.125 1.8125 1.125 3 3 C3.96413406 8.06170382 2.10564366 11.58229748 -0.46875 15.80859375 C-3.61566937 20.31222071 -6.21515849 23.4640054 -11.80078125 24.5390625 C-18.97781371 24.88560282 -24.33636462 23.44502531 -30 19 C-32.9434006 16.17924109 -35.73689038 12.91563983 -37 9 C-36.68097423 5.65022937 -36.40820361 4.40820361 -34 2 C-30.62185345 1.25845564 -28.67084131 1.57563765 -25.74609375 3.42578125 C-21.90110778 6.38395003 -18.39175566 9.53150779 -15 13 C-14.773125 12.113125 -14.54625 11.22625 -14.3125 10.3125 C-11.88523612 4.1865483 -6.9036064 -0.8629508 0 0 Z " fill="#4BCC0F" transform="translate(121,1264)"/>
<path d="M0 0 C5.8833361 1.7244261 9.07375634 5.26832106 12.625 10.0625 C13.285 10.0625 13.945 10.0625 14.625 10.0625 C15.223125 9.155 15.82125 8.2475 16.4375 7.3125 C18.62737468 4.0589719 20.3025125 2.11927798 23.625 0.0625 C26.8125 -0.3125 26.8125 -0.3125 29.625 0.0625 C31.625 2.0625 31.625 2.0625 32 5.6875 C31.91242771 10.46894688 30.03301745 14.02047072 27.625 18.0625 C26.965 18.0625 26.305 18.0625 25.625 18.0625 C25.625 18.7225 25.625 19.3825 25.625 20.0625 C19.95936983 23.01848096 15.0071717 24.10612556 8.625 23.0625 C2.30557918 20.60747321 -2.59823141 15.5865667 -6.375 10.0625 C-7.5625 6.8125 -7.5625 6.8125 -7.375 4.0625 C-5.22459504 0.56809194 -4.11369964 0.07617962 0 0 Z " fill="#4CCA0E" transform="translate(922.375,1337.9375)"/>
<path d="M0 0 C0.66 0.66 1.32 1.32 2 2 C1.74777184 8.43181807 -0.43315693 13.43315693 -5 18 C-5.99 18 -6.98 18 -8 18 C-8 18.66 -8 19.32 -8 20 C-12.84023267 21.54887445 -17.33999983 21.59760006 -22.125 19.875 C-27.00967972 16.68933931 -29.83216494 13.34483095 -31.5 7.8125 C-32 4 -32 4 -31.0625 1.9375 C-27.65804793 0.39002179 -25.55097217 0.97683853 -22 2 C-19.57983781 3.81776374 -17.97094754 5.64447733 -16 8 C-16 8.66 -16 9.32 -16 10 C-15.34 10 -14.68 10 -14 10 C-13.731875 9.236875 -13.46375 8.47375 -13.1875 7.6875 C-11.6961403 4.31231751 -10.2080366 2.76508985 -7.125 0.8125 C-4.5745118 -0.16268667 -2.70959461 -0.28522049 0 0 Z " fill="#3CC712" transform="translate(960,1182)"/>
<path d="M0 0 C0 0.66 0 1.32 0 2 C0.66 2 1.32 2 2 2 C2 2.66 2 3.32 2 4 C2.66 4 3.32 4 4 4 C4.66 5.98 5.32 7.96 6 10 C6.66 10 7.32 10 8 10 C8.0928125 9.13375 8.0928125 9.13375 8.1875 8.25 C9.39577769 4.90400023 10.96034366 3.8108591 14 2 C17.47896647 1.51347787 20.79337112 1.39668556 24 3 C24.25 6.3125 24.25 6.3125 24 10 C22.125 11.625 22.125 11.625 20 13 C19.67 13.845625 19.34 14.69125 19 15.5625 C18 18 18 18 16.27734375 19.13671875 C13.57481277 20.16117732 11.44875502 20.26601251 8.5625 20.25 C7.63566406 20.25515625 6.70882812 20.2603125 5.75390625 20.265625 C2.83945824 19.98451512 0.65109503 19.21247903 -2 18 C-2 17.34 -2 16.68 -2 16 C-2.66 16 -3.32 16 -4 16 C-4 15.34 -4 14.68 -4 14 C-4.66 14 -5.32 14 -6 14 C-10.10415132 9.17158669 -10.41733821 6.05140408 -10 0 C-6.7169902 -1.6415049 -3.57454967 -0.51888624 0 0 Z " fill="#24C015" transform="translate(76,1128)"/>
<path d="M0 0 C13.12205704 -0.04723015 26.24409251 -0.0823133 39.36621857 -0.10362434 C45.46536855 -0.11387439 51.56445869 -0.12766887 57.66357422 -0.15087891 C90.16591716 -0.27133695 122.53887897 0.32026598 155 2 C153 4 153 4 149.97299194 4.13723755 C148.0148204 4.05987869 148.0148204 4.05987869 146.01708984 3.98095703 C144.93423391 3.94385431 144.93423391 3.94385431 143.82950211 3.90600204 C142.25034108 3.85157034 140.67132327 3.79285949 139.09245682 3.73046494 C134.76655134 3.56193035 130.43951046 3.4318989 126.11230469 3.30175781 C125.20310839 3.27401464 124.29391209 3.24627148 123.35716438 3.21768761 C113.39750564 2.92846577 103.43989472 2.87615924 93.4765625 2.8671875 C92.13298298 2.86589214 92.13298298 2.86589214 90.76226044 2.86457062 C86.21600916 2.86170333 81.66978324 2.86383272 77.12353516 2.86962891 C72.48299044 2.87541899 67.84250243 2.87196384 63.20195961 2.86605644 C59.54185569 2.86241812 55.88176496 2.86360278 52.22166061 2.86618423 C50.50999316 2.86683965 48.79832441 2.86607512 47.08665848 2.86370468 C29.54718862 1.73538263 29.54718862 1.73538263 13 5 C11.00039988 5.039992 8.99952758 5.04346799 7 5 C7 4.67 7 4.34 7 4 C4.36 4 1.72 4 -1 4 C-0.67 2.68 -0.34 1.36 0 0 Z " fill="#10BB35" transform="translate(429,1050)"/>
<path d="M0 0 C0.99 0.33 1.98 0.66 3 1 C5.66398546 1.09719228 8.3009403 1.13994335 10.96484375 1.1328125 C11.75339249 1.13376923 12.54194122 1.13472595 13.35438538 1.13571167 C15.02800577 1.13639248 16.70162881 1.1345451 18.37524414 1.13037109 C20.89671028 1.1250855 23.41799301 1.13028582 25.93945312 1.13671875 C34.67527844 1.13996205 43.30452526 0.95349404 52 0 C52 0.66 52 1.32 52 2 C52.76388031 1.98747192 53.52776062 1.97494385 54.31478882 1.96203613 C64.00146097 1.80382781 73.68819782 1.65002932 83.375 1.5 C84.52500677 1.48218412 84.52500677 1.48218412 85.698246 1.46400833 C108.13272981 1.11792286 130.56233105 0.82697254 153 1 C152.67 1.66 152.34 2.32 152 3 C88.64 3 25.28 3 -40 3 C-40 2.67 -40 2.34 -40 2 C-26.65013933 1.14560892 -13.37590974 0.88021573 0 1 C0 0.67 0 0.34 0 0 Z " fill="#82F4F8" transform="translate(844,401)"/>
<path d="M0 0 C0.99 0.495 0.99 0.495 2 1 C1.51495554 2.49128577 0.98536189 3.96812982 0.4375 5.4375 C0.14746094 6.26121094 -0.14257812 7.08492187 -0.44140625 7.93359375 C-2 10 -2 10 -5.0625 10.62304688 C-9.2558405 11.02449267 -13.35073838 11.12656236 -17.55859375 11.09765625 C-18.34774673 11.0962413 -19.13689972 11.09482635 -19.94996643 11.09336853 C-22.44585115 11.08781555 -24.94164285 11.07527208 -27.4375 11.0625 C-29.13997265 11.05747891 -30.84244673 11.05291707 -32.54492188 11.04882812 C-36.69664988 11.03786158 -40.84830922 11.02062991 -45 11 C-45 11.66 -45 12.32 -45 13 C-55.19838339 13.04678377 -65.39674036 13.08209912 -75.59521008 13.10362434 C-80.33312516 13.11396651 -85.07096569 13.12794572 -89.80883789 13.15087891 C-130.11501313 13.34106813 -130.11501313 13.34106813 -147 11 C-147 10.67 -147 10.34 -147 10 C-142.8882744 9.97534254 -138.77657722 9.95716041 -134.66479492 9.94506836 C-133.26504772 9.9400292 -131.8653058 9.93319784 -130.46557617 9.92456055 C-128.45754223 9.9124768 -126.44947043 9.90730193 -124.44140625 9.90234375 C-122.62684937 9.89448853 -122.62684937 9.89448853 -120.77563477 9.88647461 C-118 10 -118 10 -117 11 C-115.01642005 11.09930369 -113.0292765 11.1279946 -111.04321289 11.12939453 C-109.76841568 11.13254669 -108.49361847 11.13569885 -107.18019104 11.13894653 C-105.7776791 11.13715656 -104.37516746 11.13510556 -102.97265625 11.1328125 C-101.54398075 11.13348565 -100.11530536 11.13445577 -98.68663025 11.13571167 C-95.68796705 11.1371886 -92.68933358 11.13503457 -89.69067383 11.13037109 C-85.84247242 11.12467894 -81.99434084 11.12794957 -78.14614201 11.13394356 C-75.1942441 11.1375537 -72.2423628 11.13640841 -69.2904644 11.13381577 C-67.87145416 11.13314748 -66.45244241 11.13397148 -65.03343391 11.13629532 C-63.05101677 11.13882863 -61.06859437 11.13428431 -59.08618164 11.12939453 C-57.95668594 11.12859894 -56.82719025 11.12780334 -55.66346741 11.12698364 C-53.0252421 11.18100097 -53.0252421 11.18100097 -51 10 C-48.24228766 9.85518138 -45.50578967 9.76582311 -42.74609375 9.71875 C-41.52201561 9.69113586 -41.52201561 9.69113586 -40.27320862 9.66296387 C-36.77350204 9.58413307 -33.2736005 9.51639864 -29.77368164 9.44775391 C-27.22271837 9.39615235 -24.67192717 9.33886212 -22.12109375 9.28125 C-21.32319931 9.26767456 -20.52530487 9.25409912 -19.70323181 9.2401123 C-16.04959367 9.49592927 -16.04959367 9.49592927 -13 8 C-11.14712498 7.92773498 -9.29166122 7.9161878 -7.4375 7.9375 C-6.42558594 7.94652344 -5.41367187 7.95554687 -4.37109375 7.96484375 C-3.58863281 7.97644531 -2.80617188 7.98804688 -2 8 C-2 6.35 -2 4.7 -2 3 C-1.34 3 -0.68 3 0 3 C0 2.01 0 1.02 0 0 Z " fill="#19DBBD" transform="translate(565,957)"/>
<path d="M0 0 C0.33 0 0.66 0 1 0 C1 6.27 1 12.54 1 19 C1.66 19.33 2.32 19.66 3 20 C3 19.34 3 18.68 3 18 C12.90209185 13.1143864 25.28597492 12.0362289 36 15 C36 15.66 36 16.32 36 17 C36.99 17 37.98 17 39 17 C39 17.99 39 18.98 39 20 C39.66 20.33 40.32 20.66 41 21 C40.505 22.485 40.505 22.485 40 24 C39.54109375 23.59007812 39.0821875 23.18015625 38.609375 22.7578125 C37.99578125 22.21898437 37.3821875 21.68015625 36.75 21.125 C36.14671875 20.59132813 35.5434375 20.05765625 34.921875 19.5078125 C29.10825848 14.94672311 23.15284952 15.33251059 16 16 C9.36920676 17.69433253 4.45167133 21.00078125 -1 25 C-1.13277344 23.77023437 -1.26554688 22.54046875 -1.40234375 21.2734375 C-1.58064043 19.64061531 -1.7590308 18.00780334 -1.9375 16.375 C-2.02451172 15.56675781 -2.11152344 14.75851562 -2.20117188 13.92578125 C-2.67709537 9.58958942 -3.22837189 5.29609164 -4 1 C-2.68 1.33 -1.36 1.66 0 2 C0 1.34 0 0.68 0 0 Z " fill="#21BAD8" transform="translate(135,243)"/>
<path d="M0 0 C2.97 0 5.94 0 9 0 C9 0.66 9 1.32 9 2 C9.969375 1.979375 10.93875 1.95875 11.9375 1.9375 C15 2 15 2 16 3 C17.51469448 3.23192865 19.03754562 3.41215238 20.5625 3.5625 C21.80193359 3.68818359 21.80193359 3.68818359 23.06640625 3.81640625 C23.70449219 3.87699219 24.34257812 3.93757812 25 4 C25 4.66 25 5.32 25 6 C25.95712891 5.98259766 25.95712891 5.98259766 26.93359375 5.96484375 C27.75988281 5.95582031 28.58617187 5.94679688 29.4375 5.9375 C30.26121094 5.92589844 31.08492188 5.91429687 31.93359375 5.90234375 C34 6 34 6 35 7 C36.84891946 7.23363881 38.70488031 7.41303635 40.5625 7.5625 C42.08037109 7.68818359 42.08037109 7.68818359 43.62890625 7.81640625 C44.80259766 7.90728516 44.80259766 7.90728516 46 8 C46 8.66 46 9.32 46 10 C46.61488281 9.98839844 47.22976563 9.97679687 47.86328125 9.96484375 C48.67152344 9.95582031 49.47976563 9.94679688 50.3125 9.9375 C51.51326172 9.92009766 51.51326172 9.92009766 52.73828125 9.90234375 C55 10 55 10 58 11 C61.38616749 11.26867576 64.77189532 11.4451204 68.1640625 11.62109375 C69.09992188 11.74613281 70.03578125 11.87117187 71 12 C71.495 12.99 71.495 12.99 72 14 C64.03493573 14.35533143 56.62687583 13.28592862 48.8125 11.8125 C47.59377197 11.58836426 46.37504395 11.36422852 45.11938477 11.13330078 C29.94358321 8.30332829 14.86614422 5.1752633 0 1 C0 0.67 0 0.34 0 0 Z " fill="#7BFBC8" transform="translate(326,951)"/>
<path d="M0 0 C0.33 0 0.66 0 1 0 C0.99476318 0.79470703 0.98952637 1.58941406 0.98413086 2.40820312 C0.72038093 27.76954755 0.72038093 27.76954755 3 53 C3.66 53 4.32 53 5 53 C5.33 55.64 5.66 58.28 6 61 C3.33921421 59.66960711 3.0971186 58.77584225 2 56 C1.41455977 53.20445289 0.89470005 50.44077173 0.4375 47.625 C0.31181641 46.8825 0.18613281 46.14 0.05664062 45.375 C-0.18977536 43.91456598 -0.43180462 42.45338422 -0.66918945 40.99145508 C-0.94695187 39.31934581 -1.25858499 37.652912 -1.578125 35.98828125 C-2.11644279 32.1751969 -2.19080781 28.40534328 -2.1875 24.5625 C-2.18814453 23.78277832 -2.18878906 23.00305664 -2.18945312 22.19970703 C-2.12237305 14.6852146 -1.22398097 7.40945624 0 0 Z " fill="#D6DA38" transform="translate(798,279)"/>
<path d="M0 0 C0.98935547 -0.01611328 1.97871094 -0.03222656 2.99804688 -0.04882812 C9.23503065 -0.0529668 13.72717377 0.82014767 19.4375 3.3125 C20.76483847 3.66895684 22.09718352 4.0084595 23.4375 4.3125 C23.4375 4.9725 23.4375 5.6325 23.4375 6.3125 C24.3965625 6.498125 24.3965625 6.498125 25.375 6.6875 C26.3959375 6.996875 26.3959375 6.996875 27.4375 7.3125 C27.9325 8.3025 27.9325 8.3025 28.4375 9.3125 C25.43226557 8.31522726 22.43072962 7.31016387 19.4375 6.27734375 C18.4475 5.93832031 17.4575 5.59929687 16.4375 5.25 C15.4475 4.90839844 14.4575 4.56679687 13.4375 4.21484375 C0.82278138 0.42057291 -13.80906429 1.19323614 -25.75 6.8125 C-28.40026054 8.24805779 -30.98804598 9.74625657 -33.5625 11.3125 C-34.5525 11.8075 -34.5525 11.8075 -35.5625 12.3125 C-34.94140625 9.98046875 -34.94140625 9.98046875 -33.5625 7.3125 C-30.83984375 5.80078125 -30.83984375 5.80078125 -27.5 4.625 C-25.87384766 4.03138672 -25.87384766 4.03138672 -24.21484375 3.42578125 C-16.01572992 0.92658612 -8.58349432 -0.02806898 0 0 Z " fill="#1AB3D3" transform="translate(79.5625,206.6875)"/>
<path d="M0 0 C5.4612534 0.65306754 10.8806524 1.43071779 16.3046875 2.33984375 C17.0687088 2.46686172 17.8327301 2.5938797 18.61990356 2.7247467 C20.22508809 2.99205217 21.8301384 3.26016474 23.43505859 3.52905273 C25.86125732 3.93519947 28.28801152 4.33789243 30.71484375 4.74023438 C38.50465761 6.0375373 46.2685966 7.38343384 54 9 C54 9.33 54 9.66 54 10 C51.10388456 9.85865273 48.2081919 9.7120847 45.3125 9.5625 C44.49587891 9.52318359 43.67925781 9.48386719 42.83789062 9.44335938 C36.20241662 9.0941239 30.39601985 7.82743424 24 6 C20.32658898 5.12885941 16.9600965 4.89204703 13.1875 4.9375 C12.21167969 4.94652344 11.23585938 4.95554687 10.23046875 4.96484375 C9.49441406 4.97644531 8.75835937 4.98804688 8 5 C8 4.34 8 3.68 8 3 C5.36 2.67 2.72 2.34 0 2 C0 1.34 0 0.68 0 0 Z " fill="#11C447" transform="translate(256,995)"/>
<path d="M0 0 C-1.155 -0.020625 -2.31 -0.04125 -3.5 -0.0625 C-11.40139991 -0.33992139 -11.40139991 -0.33992139 -18 3 C-18.66 2.67 -19.32 2.34 -20 2 C-20.33 2.99 -20.66 3.98 -21 5 C-21.78375 5.0825 -22.5675 5.165 -23.375 5.25 C-26.08342864 5.72032588 -26.08342864 5.72032588 -27.1875 7.75 C-27.455625 8.4925 -27.72375 9.235 -28 10 C-28.37125 10.9075 -28.7425 11.815 -29.125 12.75 C-29.558125 13.86375 -29.558125 13.86375 -30 15 C-30.625 13.1875 -30.625 13.1875 -31 11 C-30.34 10.01 -29.68 9.02 -29 8 C-29 7.01 -29 6.02 -29 5 C-21.10989434 -2.87008001 -10.06543347 -5.76517786 0 0 Z " fill="#9EF9FA" transform="translate(837,385)"/>
<path d="M0 0 C1.19126781 3.57380342 0.7349445 5.50883302 0.0625 9.1875 C-0.13214844 10.27417969 -0.32679687 11.36085937 -0.52734375 12.48046875 C-0.68332031 13.31191406 -0.83929687 14.14335937 -1 15 C-1.62648438 14.57847656 -2.25296875 14.15695313 -2.8984375 13.72265625 C-3.71570313 13.17480469 -4.53296875 12.62695312 -5.375 12.0625 C-6.18710937 11.51722656 -6.99921875 10.97195312 -7.8359375 10.41015625 C-11.73565227 7.86900637 -14.1976181 7.86527571 -18.875 7.875 C-20.10992187 7.87242187 -21.34484375 7.86984375 -22.6171875 7.8671875 C-25.30774489 7.97282139 -27.45629184 8.19470546 -30 9 C-30 8.01 -30 7.02 -30 6 C-22.71444771 4.46619952 -15.28555229 4.46619952 -8 6 C-8 6.66 -8 7.32 -8 8 C-4.22699642 6.9802693 -3.19793856 6.34127338 -1.1875 2.875 C-0.795625 1.92625 -0.40375 0.9775 0 0 Z " fill="#19BEDF" transform="translate(30,241)"/>
<path d="M0 0 C0.66 0.33 1.32 0.66 2 1 C1.51495554 2.49128577 0.98536189 3.96812982 0.4375 5.4375 C0.14746094 6.26121094 -0.14257812 7.08492187 -0.44140625 7.93359375 C-2 10 -2 10 -4.953125 10.609375 C-9.72424779 11.16152728 -14.51058644 11.22984124 -19.30859375 11.31640625 C-20.75867577 11.3475779 -20.75867577 11.3475779 -22.23805237 11.37937927 C-25.30446758 11.44438991 -28.37096322 11.50353277 -31.4375 11.5625 C-33.5253987 11.6057314 -35.61328949 11.64934712 -37.70117188 11.69335938 C-42.80070033 11.80002115 -47.90030911 11.90142309 -53 12 C-50.02508895 9.02508895 -46.73792413 9.66329646 -42.74609375 9.62109375 C-41.93004166 9.60409927 -41.11398956 9.5871048 -40.27320862 9.56959534 C-37.66138473 9.51636928 -35.04957756 9.47612104 -32.4375 9.4375 C-29.82193308 9.39363154 -27.20649219 9.34698091 -24.59107971 9.29469299 C-22.96189294 9.26263725 -21.33259449 9.23577828 -19.70323181 9.21446228 C-16.05014056 9.48887919 -16.05014056 9.48887919 -13 8 C-11.14712498 7.92773498 -9.29166122 7.9161878 -7.4375 7.9375 C-6.42558594 7.94652344 -5.41367187 7.95554687 -4.37109375 7.96484375 C-3.58863281 7.97644531 -2.80617188 7.98804688 -2 8 C-2 6.35 -2 4.7 -2 3 C-1.34 3 -0.68 3 0 3 C0 2.01 0 1.02 0 0 Z " fill="#11DAD6" transform="translate(565,957)"/>
<path d="M0 0 C0.66 0.33 1.32 0.66 2 1 C-0.4532898 4.14021095 -2.98379664 7.21237486 -5.5625 10.25 C-6.43068359 11.27867187 -6.43068359 11.27867187 -7.31640625 12.328125 C-9 14 -9 14 -12 15 C-11.80019531 15.57363281 -11.60039063 16.14726562 -11.39453125 16.73828125 C-10.9082321 19.5260754 -11.42460047 20.68517491 -12.6875 23.1875 C-13.18830078 24.22970703 -13.18830078 24.22970703 -13.69921875 25.29296875 C-15.30835927 27.40466367 -16.42201159 27.63636795 -19 28 C-17.24012474 16.19595859 -8.39250171 7.70956758 0 0 Z " fill="#CDF6D2" transform="translate(923,308)"/>
<path d="M0 0 C0 0.33 0 0.66 0 1 C-1.65 1 -3.3 1 -5 1 C-5 0.34 -5 -0.32 -5 -1 C-6.98 -1 -8.96 -1 -11 -1 C-11 -1.66 -11 -2.32 -11 -3 C-15.25025618 -2.86109398 -19.50012842 -2.71268006 -23.75 -2.5625 C-24.9565625 -2.52318359 -26.163125 -2.48386719 -27.40625 -2.44335938 C-28.56640625 -2.40146484 -29.7265625 -2.35957031 -30.921875 -2.31640625 C-31.99018555 -2.27974854 -33.05849609 -2.24309082 -34.15917969 -2.20532227 C-36.60390583 -2.02862798 -38.69713885 -1.82832165 -41 -1 C-41.33 -0.34 -41.66 0.32 -42 1 C-43.98 1 -45.96 1 -48 1 C-38.73448668 -9.98932975 -11.06882489 -6.58146345 0 0 Z " fill="#CDF4B6" transform="translate(981,302)"/>
<path d="M0 0 C0 0.66 0 1.32 0 2 C-4.40914783 3.10228696 -8.48382401 3.07654536 -13 3 C-13 3.66 -13 4.32 -13 5 C-12.34 5.33 -11.68 5.66 -11 6 C-11.86625 5.95875 -12.7325 5.9175 -13.625 5.875 C-17.17808354 6.00659569 -19.75284506 6.56521061 -23 8 C-23.33 8.99 -23.66 9.98 -24 11 C-26.5625 12.1875 -26.5625 12.1875 -29 13 C-25.97321781 7.11459018 -21.9237033 3.51609804 -15.8125 1.1875 C-10.57526461 -0.40333259 -5.42265571 -0.27366674 0 0 Z " fill="#D2FCFD" transform="translate(162,258)"/>
<path d="M0 0 C4.29 0 8.58 0 13 0 C13 0.66 13 1.32 13 2 C14.98 2 16.96 2 19 2 C19 2.66 19 3.32 19 4 C19.680625 3.938125 20.36125 3.87625 21.0625 3.8125 C24.88606553 4.05655737 27.61539138 5.24260706 31 7 C31.33 7.99 31.66 8.98 32 10 C32.763125 9.938125 33.52625 9.87625 34.3125 9.8125 C37.50339968 10.03512091 37.96106145 10.68302438 40 13 C40.99 13.33 41.98 13.66 43 14 C42.67 14.66 42.34 15.32 42 16 C41.43716309 15.71801758 40.87432617 15.43603516 40.29443359 15.14550781 C27.06874241 8.56365783 14.78291193 2.94511999 0 1 C0 0.67 0 0.34 0 0 Z " fill="#3AC6AD" transform="translate(901,205)"/>
<path d="M0 0 C1.79158489 -0.02696365 3.58328473 -0.04637917 5.375 -0.0625 C6.37273438 -0.07410156 7.37046875 -0.08570313 8.3984375 -0.09765625 C11 0 11 0 13 1 C15.61778787 1.36582146 18.22490237 1.6863137 20.8515625 1.97265625 C21.62559418 2.06002548 22.39962585 2.14739471 23.19711304 2.2374115 C25.67269022 2.51601188 28.14882001 2.78931432 30.625 3.0625 C32.30212237 3.25030277 33.97920626 3.43844948 35.65625 3.62695312 C39.77039726 4.08862966 43.88504791 4.54555518 48 5 C46 7 46 7 43.22265625 7.24609375 C37.24851491 7.0713389 31.33260373 5.97600401 25.4375 5.0625 C24.23158203 4.88009766 23.02566406 4.69769531 21.78320312 4.50976562 C17.4461895 3.85119094 13.11160761 3.19280488 8.78930664 2.44311523 C6.13741702 2.02183036 3.67916471 1.92120104 1 2 C0.67 1.34 0.34 0.68 0 0 Z " fill="#05BD45" transform="translate(849,1074)"/>
<path d="M0 0 C-3.16722516 2.80148939 -5.24842428 3.39649754 -9.4453125 3.51171875 C-11.04947021 3.56501343 -11.04947021 3.56501343 -12.68603516 3.61938477 C-14.38832275 3.65310181 -14.38832275 3.65310181 -16.125 3.6875 C-17.28177246 3.72093506 -18.43854492 3.75437012 -19.63037109 3.78881836 C-29.08656472 4.04090495 -38.5413574 4.10998422 -48 4 C-48 3.34 -48 2.68 -48 2 C-46.94611084 1.97494385 -45.89222168 1.9498877 -44.80639648 1.92407227 C-40.87204179 1.82943709 -36.93784075 1.72935661 -33.00366211 1.62768555 C-31.30545665 1.5845478 -29.60721371 1.54285916 -27.90893555 1.50268555 C-25.45870702 1.44446656 -23.00866353 1.38092497 -20.55859375 1.31640625 C-19.43160316 1.29133751 -19.43160316 1.29133751 -18.28184509 1.26576233 C-12.14496402 1.09581186 -6.12937112 -0.18573852 0 0 Z " fill="#3ADC6C" transform="translate(568,966)"/>
<path d="M0 0 C0.98291016 0.00322266 1.96582031 0.00644531 2.97851562 0.00976562 C4.51475586 0.02233398 4.51475586 0.02233398 6.08203125 0.03515625 C7.63567383 0.04192383 7.63567383 0.04192383 9.22070312 0.04882812 C11.77870391 0.06061615 14.33658858 0.0770711 16.89453125 0.09765625 C16.89453125 0.75765625 16.89453125 1.41765625 16.89453125 2.09765625 C12.18074122 2.38517106 7.46679425 2.66990672 2.75268555 2.95214844 C1.15140327 3.04840303 -0.44983478 3.14539646 -2.05102539 3.24316406 C-4.36202746 3.38414022 -6.67317929 3.52239552 -8.984375 3.66015625 C-10.04574425 3.72577759 -10.04574425 3.72577759 -11.1285553 3.79272461 C-15.46548906 4.04803667 -19.76385514 4.13732833 -24.10546875 4.09765625 C-23.77546875 3.43765625 -23.44546875 2.77765625 -23.10546875 2.09765625 C-20.62023367 1.80998584 -18.22403427 1.63017129 -15.73046875 1.53515625 C-10.35236017 1.29758942 -5.34207427 -0.03087904 0 0 Z " fill="#7FFCCB" transform="translate(1007.10546875,800.90234375)"/>
<path d="M0 0 C0.66 0 1.32 0 2 0 C5.03973278 3.54635491 7.34166151 7.24667436 7.3125 12 C7.209375 12.99 7.10625 13.98 7 15 C7.86371216 14.75878418 7.86371216 14.75878418 8.74487305 14.51269531 C12.41481439 13.67834684 16.06258766 13.77436986 19.8125 13.75 C20.59431641 13.729375 21.37613281 13.70875 22.18164062 13.6875 C27.55135322 13.6516122 31.20635808 14.56797873 36 17 C33.37657404 18.31171298 32.32198048 17.74566932 29.5 17.0625 C21.23281036 15.31138058 14.08254628 15.60517147 6 18 C5.81824219 17.28714844 5.63648438 16.57429688 5.44921875 15.83984375 C4.00217222 10.32622542 2.41108634 5.16661358 0 0 Z " fill="#21BAD8" transform="translate(176,267)"/>
<path d="M0 0 C0.77609619 0.23456909 0.77609619 0.23456909 1.56787109 0.47387695 C10.24147757 3.08613535 18.93392929 5.63412461 27.625 8.1875 C29.21745538 8.65557358 30.80990335 9.12367234 32.40234375 9.59179688 C36.26814392 10.72815484 40.134044 11.86417231 44 13 C44 13.33 44 13.66 44 14 C38.63121278 14.25764608 34.22553036 13.40466376 29.1875 11.6875 C27.77099679 11.22345907 26.3543304 10.75991597 24.9375 10.296875 C24.25945312 10.07193359 23.58140625 9.84699219 22.8828125 9.61523438 C20.49916359 8.83634495 18.096801 8.13249067 15.6875 7.4375 C10.37288275 5.86212793 5.1893173 3.94352758 0 2 C0 1.34 0 0.68 0 0 Z " fill="#12C448" transform="translate(191,977)"/>
<path d="M0 0 C10.23 0.66 20.46 1.32 31 2 C31 2.33 31 2.66 31 3 C29.86820312 3.06058594 28.73640625 3.12117188 27.5703125 3.18359375 C26.08852855 3.26799917 24.6067584 3.35264717 23.125 3.4375 C22.00544922 3.49647461 22.00544922 3.49647461 20.86328125 3.55664062 C16.80013136 3.71573624 16.80013136 3.71573624 13 5 C11.00039988 5.039992 8.99952758 5.04346799 7 5 C7 4.67 7 4.34 7 4 C4.36 4 1.72 4 -1 4 C-0.67 2.68 -0.34 1.36 0 0 Z " fill="#0BBC37" transform="translate(429,1050)"/>
<path d="M0 0 C4.86316268 0.57433056 8.86160208 2.12493095 13.25 4.1875 C21.94931847 8.14953513 30.89417038 11.12281078 40 14 C40 14.33 40 14.66 40 15 C25.80966101 13.287062 12.8476767 6.93082899 0 1 C0 0.67 0 0.34 0 0 Z " fill="#4AE654" transform="translate(172,968)"/>
<path d="M0 0 C7.16479761 2.37982677 12.17634389 8.10360499 16.125 14.375 C17 17 17 17 16 20 C15.67 18.68 15.34 17.36 15 16 C14.34 16 13.68 16 13 16 C13 15.34 13 14.68 13 14 C12.34 14 11.68 14 11 14 C11 13.34 11 12.68 11 12 C10.01 12 9.02 12 8 12 C7.67 10.02 7.34 8.04 7 6 C6.360625 5.896875 5.72125 5.79375 5.0625 5.6875 C4.381875 5.460625 3.70125 5.23375 3 5 C2.67 4.01 2.34 3.02 2 2 C1.34 2 0.68 2 0 2 C0 1.34 0 0.68 0 0 Z " fill="#C8FCFC" transform="translate(989,308)"/>
<path d="M0 0 C7.17855808 10.76783712 5.29810467 25.68938103 5 38 C1.04 36.35 -2.92 34.7 -7 33 C-3 32 -3 32 3 35 C3 28.73 3 22.46 3 16 C2.34 16 1.68 16 1 16 C1.01160156 15.43152344 1.02320313 14.86304688 1.03515625 14.27734375 C1.09223194 9.39329516 0.81956772 4.81496035 0 0 Z " fill="#D1D844" transform="translate(979,266)"/>
<path d="M0 0 C0.66 0.4125 1.32 0.825 2 1.25 C5.5865203 3.34213684 9.27127492 5.17727335 13 7 C13 7.66 13 8.32 13 9 C12.1646875 8.83757812 11.329375 8.67515625 10.46875 8.5078125 C6.76392787 7.96543989 3.24321728 7.86739183 -0.5 7.875 C-1.7684375 7.87242187 -3.036875 7.86984375 -4.34375 7.8671875 C-7.66105518 7.9876879 -10.74630764 8.3673376 -14 9 C-13.67 8.34 -13.34 7.68 -13 7 C-10.6015625 6.40234375 -10.6015625 6.40234375 -7.625 5.9375 C-4.60519514 5.45544672 -1.90647913 4.96882638 1 4 C0.67 2.68 0.34 1.36 0 0 Z " fill="#21CEE1" transform="translate(830,375)"/>
<path d="M0 0 C0 0.33 0 0.66 0 1 C-0.6612085 1.08564209 -1.32241699 1.17128418 -2.00366211 1.25952148 C-4.98219871 1.64779828 -7.95983985 2.0425605 -10.9375 2.4375 C-11.97841797 2.57220703 -13.01933594 2.70691406 -14.09179688 2.84570312 C-15.08115234 2.97783203 -16.07050781 3.10996094 -17.08984375 3.24609375 C-18.00628662 3.36654053 -18.92272949 3.4869873 -19.86694336 3.61108398 C-21.97635212 3.78675073 -21.97635212 3.78675073 -23 5 C-25.35313555 5.07271741 -27.70833668 5.08370868 -30.0625 5.0625 C-31.35285156 5.05347656 -32.64320313 5.04445313 -33.97265625 5.03515625 C-34.97167969 5.02355469 -35.97070312 5.01195312 -37 5 C-37 4.67 -37 4.34 -37 4 C-36.04287109 3.90912109 -36.04287109 3.90912109 -35.06640625 3.81640625 C-33.82697266 3.69072266 -33.82697266 3.69072266 -32.5625 3.5625 C-31.32693359 3.44068359 -31.32693359 3.44068359 -30.06640625 3.31640625 C-28.01337975 3.21069185 -28.01337975 3.21069185 -27 2 C-18.00796274 -0.19200908 -9.18317383 -0.22581575 0 0 Z " fill="#06BF44" transform="translate(180,1072)"/>
<path d="M0 0 C1.98 0 3.96 0 6 0 C6 0.66 6 1.32 6 2 C7.65 2 9.3 2 11 2 C11 2.66 11 3.32 11 4 C12.65 4 14.3 4 16 4 C16 4.66 16 5.32 16 6 C16.969375 5.979375 17.93875 5.95875 18.9375 5.9375 C22 6 22 6 23 7 C24.34747084 7.23075082 25.70377565 7.41153063 27.0625 7.5625 C28.361875 7.706875 29.66125 7.85125 31 8 C31.33 9.32 31.66 10.64 32 12 C20.9495295 9.51558509 10.51748212 5.11999404 0 1 C0 0.67 0 0.34 0 0 Z " fill="#7EFBD3" transform="translate(286,937)"/>
<path d="M0 0 C0.99 0.495 0.99 0.495 2 1 C2 2.65 2 4.3 2 6 C2.66 6 3.32 6 4 6 C6.43056647 27.65808334 6.43056647 27.65808334 3 34 C2.98018066 33.38592285 2.96036133 32.7718457 2.93994141 32.13916016 C2.84346198 29.30074617 2.73429198 26.46294843 2.625 23.625 C2.57859375 22.17673828 2.57859375 22.17673828 2.53125 20.69921875 C2.30059691 14.97133365 1.67440903 9.56977695 0.41552734 3.97412109 C0 2 0 2 0 0 Z " fill="#43D0AD" transform="translate(981,270)"/>
<path d="M0 0 C0.33 0.66 0.66 1.32 1 2 C-0.03898438 2.01417969 -1.07796875 2.02835938 -2.1484375 2.04296875 C-10.84171403 2.29429788 -17.51116317 3.12145486 -25 8 C-25 7.01 -25 6.02 -25 5 C-16.62240048 -0.51935969 -9.7174802 -0.58304881 0 0 Z " fill="#92FAFB" transform="translate(602,940)"/>
<path d="M0 0 C2.85442753 -0.05437005 5.70780076 -0.09384974 8.5625 -0.125 C9.36236328 -0.14175781 10.16222656 -0.15851563 10.98632812 -0.17578125 C16.06500335 -0.21723982 20.18811906 0.35943925 25 2 C25 2.33 25 2.66 25 3 C24.31486328 2.99476318 23.62972656 2.98952637 22.92382812 2.98413086 C19.78256163 2.96318555 16.64130989 2.9502844 13.5 2.9375 C11.88351562 2.92493164 11.88351562 2.92493164 10.234375 2.91210938 C4.38671618 2.89428115 -1.21863671 3.10894037 -7 4 C-7 3.34 -7 2.68 -7 2 C-4.69 2 -2.38 2 0 2 C0 1.34 0 0.68 0 0 Z " fill="#DFC42F" transform="translate(947,295)"/>
<path d="M0 0 C-4.78884857 3.64901081 -9.00869615 5.02697077 -14.875 6.1875 C-15.63941406 6.35185547 -16.40382813 6.51621094 -17.19140625 6.68554688 C-22.10867756 7.71658763 -27.00821273 8.43714472 -32 9 C-31.67 8.34 -31.34 7.68 -31 7 C-28.39321019 6.28605757 -25.8288299 5.67841345 -23.1875 5.125 C-16.68701935 3.69803181 -10.47556491 1.95038096 -4.22265625 -0.36328125 C-2 -1 -2 -1 0 0 Z " fill="#14C648" transform="translate(808,986)"/>
<path d="M0 0 C1.134375 0.020625 2.26875 0.04125 3.4375 0.0625 C-1.52698846 3.37215897 -7.31366986 4.56265294 -13 6.25 C-14.24072266 6.63091797 -15.48144531 7.01183594 -16.75976562 7.40429688 C-17.95150391 7.75943359 -19.14324219 8.11457031 -20.37109375 8.48046875 C-21.46220459 8.80813232 -22.55331543 9.1357959 -23.67749023 9.47338867 C-26.48271466 10.04620804 -27.91753788 10.04450274 -30.5625 9.0625 C-22.60864804 6.34681235 -14.69201819 3.70892644 -6.5390625 1.640625 C-0.98923392 0.01735498 -0.98923392 0.01735498 0 0 Z " fill="#7FFED0" transform="translate(670.5625,944.9375)"/>
<path d="M0 0 C0.99 0.33 1.98 0.66 3 1 C4.18622086 3.41965449 5.18350207 5.73776179 6.125 8.25 C6.38925781 8.91902344 6.65351562 9.58804687 6.92578125 10.27734375 C8.29629529 13.81841811 9.40366433 17.24744869 10 21 C11.32 21.33 12.64 21.66 14 22 C9.25 25 9.25 25 7 25 C6.91363281 24.20078125 6.82726562 23.4015625 6.73828125 22.578125 C5.68851064 14.37257858 3.52689711 7.47109883 0 0 Z " fill="#20C1E1" transform="translate(1002,318)"/>
<path d="M0 0 C0 0.99 0 1.98 0 3 C-2.31 3.33 -4.62 3.66 -7 4 C-7 4.66 -7 5.32 -7 6 C-8.269553 6.64834654 -9.54069706 7.29357815 -10.8125 7.9375 C-11.52019531 8.29714844 -12.22789062 8.65679688 -12.95703125 9.02734375 C-15 10 -15 10 -18 11 C-18.33 11.66 -18.66 12.32 -19 13 C-22.0625 13.625 -22.0625 13.625 -25 14 C-25 13.34 -25 12.68 -25 12 C-24.09378906 11.55269531 -23.18757812 11.10539063 -22.25390625 10.64453125 C-15.96666509 7.52769798 -9.73375263 4.39134787 -3.671875 0.84765625 C-2 0 -2 0 0 0 Z " fill="#13C548" transform="translate(871,957)"/>
<path d="M0 0 C2 3 2 3 2.75 5.9375 C4.00794807 10.78215952 6.50423647 15.03718141 8.85546875 19.42578125 C9.23316406 20.27527344 9.61085938 21.12476563 10 22 C9.67 22.66 9.34 23.32 9 24 C7 23 7 23 6 20 C5.01 19.34 4.02 18.68 3 18 C2.05078125 14.8828125 2.05078125 14.8828125 1.3125 11.125 C1.06113281 9.89007813 0.80976562 8.65515625 0.55078125 7.3828125 C0 4 0 4 0 0 Z " fill="#2CCEBC" transform="translate(798,326)"/>
<path d="M0 0 C1.56902561 3.13805122 0.56136446 6.26618588 0.0625 9.625 C-0.03740234 10.33140625 -0.13730469 11.0378125 -0.24023438 11.765625 C-0.48791959 13.51121607 -0.74323871 15.25572084 -1 17 C-5.3314545 15.69704214 -7.62102135 14.96496441 -10 11 C-7.69 11.33 -5.38 11.66 -3 12 C-3.0928125 10.700625 -3.0928125 10.700625 -3.1875 9.375 C-2.97544498 5.55800967 -1.87955693 3.28922464 0 0 Z " fill="#C8DE63" transform="translate(843,365)"/>
<path d="M0 0 C2.475 0.495 2.475 0.495 5 1 C5 1.66 5 2.32 5 3 C5.99 3 6.98 3 8 3 C8 3.66 8 4.32 8 5 C9.32 5 10.64 5 12 5 C12.99 6.485 12.99 6.485 14 8 C16.05925139 8.72382467 16.05925139 8.72382467 18 9 C18 9.66 18 10.32 18 11 C18.99 11 19.98 11 21 11 C21.33 11.99 21.66 12.98 22 14 C17.1669269 12.32554948 13.0526537 9.70850503 8.75 7 C8.0178125 6.54882812 7.285625 6.09765625 6.53125 5.6328125 C5.83515625 5.19710937 5.1390625 4.76140625 4.421875 4.3125 C3.78862305 3.91675781 3.15537109 3.52101563 2.50292969 3.11328125 C1 2 1 2 0 0 Z " fill="#7FFBCE" transform="translate(243,912)"/>
<path d="M0 0 C0.99 0.33 1.98 0.66 3 1 C2.34 1.66 1.68 2.32 1 3 C0.34 2.67 -0.32 2.34 -1 2 C-1.33 2.99 -1.66 3.98 -2 5 C-3.175625 5.12375 -3.175625 5.12375 -4.375 5.25 C-7.08342864 5.72032588 -7.08342864 5.72032588 -8.1875 7.75 C-8.455625 8.4925 -8.72375 9.235 -9 10 C-9.37125 10.9075 -9.7425 11.815 -10.125 12.75 C-10.558125 13.86375 -10.558125 13.86375 -11 15 C-11.625 13.1875 -11.625 13.1875 -12 11 C-11.34 10.01 -10.68 9.02 -10 8 C-10 7.01 -10 6.02 -10 5 C-7.32196842 3.21464561 -4.97778133 2.14530051 -2 1 C-1.34 0.67 -0.68 0.34 0 0 Z " fill="#8EF5F9" transform="translate(818,385)"/>
<path d="M0 0 C2.61812684 2.28171948 3.62215474 4.19391672 4.625 7.5 C4.86476562 8.2734375 5.10453125 9.046875 5.3515625 9.84375 C5.56554687 10.5553125 5.77953125 11.266875 6 12 C6.33 12.99 6.66 13.98 7 15 C9.01508358 15.73323796 9.01508358 15.73323796 11 16 C10 17 10 17 6.9375 17.0625 C5.968125 17.041875 4.99875 17.02125 4 17 C3.71125 15.783125 3.4225 14.56625 3.125 13.3125 C2.51237377 10.83136377 1.84636595 8.62445011 0.875 6.25 C0 4 0 4 0 0 Z " fill="#C8FCFD" transform="translate(176,269)"/>
<path d="M0 0 C5.56664924 1.66086912 10.65786353 4.11071736 15.875 6.625 C16.75414062 7.04523437 17.63328125 7.46546875 18.5390625 7.8984375 C20.69422878 8.9291692 22.84779922 9.96309426 25 11 C22 12 22 12 19.51171875 11.0390625 C18.57972656 10.57242188 17.64773438 10.10578125 16.6875 9.625 C12.76111229 7.74512472 9.39353844 6.35623285 5 6 C5 5.34 5 4.68 5 4 C2.525 3.01 2.525 3.01 0 2 C0 1.34 0 0.68 0 0 Z " fill="#39C83A" transform="translate(270,930)"/>
<path d="M0 0 C0.33 0.66 0.66 1.32 1 2 C0.38125 2.061875 -0.2375 2.12375 -0.875 2.1875 C-3.27761141 2.828919 -3.27761141 2.828919 -4.25 5.5625 C-4.4975 6.366875 -4.745 7.17125 -5 8 C-5.33 7.34 -5.66 6.68 -6 6 C-8.19123057 6.98227577 -9.77479648 7.74408691 -11.375 9.5625 C-13.70402275 11.62278935 -15.97538534 11.6639317 -19 12 C-15.60063328 8.11000303 -11.77568943 6.0598982 -7.25 3.75 C-6.55261719 3.38648438 -5.85523438 3.02296875 -5.13671875 2.6484375 C-3.42794346 1.75893803 -1.71443502 0.87854133 0 0 Z " fill="#3BCA3E" transform="translate(769,900)"/>
<path d="M0 0 C2.31399023 2.31399023 2.32256804 2.98604724 2.6328125 6.1328125 C2.71660156 6.93847656 2.80039062 7.74414062 2.88671875 8.57421875 C2.96535156 9.41597656 3.04398438 10.25773437 3.125 11.125 C3.21136719 11.97449219 3.29773438 12.82398438 3.38671875 13.69921875 C3.59902557 15.79869727 3.80053603 17.89926242 4 20 C4.66 20 5.32 20 6 20 C6.33 22.64 6.66 25.28 7 28 C4.3398462 26.6699231 4.10069667 25.77375562 3 23 C2.38917382 20.20364894 1.84960501 17.44357258 1.375 14.625 C1.2409375 13.8825 1.106875 13.14 0.96875 12.375 C0.24566328 8.19880525 -0.14862783 4.25616073 0 0 Z " fill="#BDE157" transform="translate(797,312)"/>
<path d="M0 0 C3.13010458 1.39192704 5.32336692 3.02642226 7.75 5.4375 C8.67039062 6.33275391 8.67039062 6.33275391 9.609375 7.24609375 C11 9 11 9 11 12 C10.01 12 9.02 12 8 12 C8 10.68 8 9.36 8 8 C6.02 8.66 4.04 9.32 2 10 C2.66 8.02 3.32 6.04 4 4 C3.01 4 2.02 4 1 4 C1 3.34 1 2.68 1 2 C0.34 1.67 -0.32 1.34 -1 1 C-0.67 0.67 -0.34 0.34 0 0 Z " fill="#D4FDFC" transform="translate(112,220)"/>
<path d="M0 0 C2 1 2 1 2.6328125 2.8203125 C3.6669317 7.66261668 4.2106585 12.04952534 4 17 C5.32 17.33 6.64 17.66 8 18 C6.02 18.99 4.04 19.98 2 21 C1.34 14.07 0.68 7.14 0 0 Z " fill="#1ACBE7" transform="translate(371,922)"/>
<path d="M0 0 C0 0.66 0 1.32 0 2 C-6.56967515 5.48192783 -12.66873967 8.59014224 -20 10 C-17.43244849 7.02235346 -14.50758828 5.58580899 -11 3.875 C-9.4221875 3.09769531 -9.4221875 3.09769531 -7.8125 2.3046875 C-2.84431138 0 -2.84431138 0 0 0 Z " fill="#13C548" transform="translate(974,895)"/>
<path d="M0 0 C2.97 0 5.94 0 9 0 C5.31193524 2.45870984 1.72194714 3.45051883 -2.5 4.6875 C-3.65822266 5.04424805 -3.65822266 5.04424805 -4.83984375 5.40820312 C-5.58363281 5.62798828 -6.32742188 5.84777344 -7.09375 6.07421875 C-7.77115234 6.27619873 -8.44855469 6.47817871 -9.14648438 6.6862793 C-11 7 -11 7 -14 6 C-13.34 6 -12.68 6 -12 6 C-12 5.34 -12 4.68 -12 4 C-7.8803623 2.70756464 -4.33168317 1.73747375 0 2 C0 1.34 0 0.68 0 0 Z " fill="#7FFCCD" transform="translate(933,813)"/>
<path d="M0 0 C20.15261959 -0.738041 20.15261959 -0.738041 28 4 C28 4.33 28 4.66 28 5 C26.35 5 24.7 5 23 5 C23 4.34 23 3.68 23 3 C21.02 3 19.04 3 17 3 C17 2.34 17 1.68 17 1 C11.39 1 5.78 1 0 1 C0 0.67 0 0.34 0 0 Z " fill="#C6F6CC" transform="translate(953,298)"/>
<path d="M0 0 C-0.33 0.99 -0.66 1.98 -1 3 C-3.6171875 4.09765625 -3.6171875 4.09765625 -6.875 5.0625 C-10.4020249 6.12060747 -12.91885272 6.94590182 -16 9 C-18.6875 9.125 -18.6875 9.125 -21 9 C-18.16566697 6.16566697 -14.68885156 4.94418643 -11.0625 3.375 C-10.33353516 3.05015625 -9.60457031 2.7253125 -8.85351562 2.390625 C-3.37416295 0 -3.37416295 0 0 0 Z " fill="#11C548" transform="translate(845,971)"/>
<path d="M0 0 C5.94 0 11.88 0 18 0 C15 3 15 3 11.20703125 3.07421875 C9.74085796 2.96143619 8.27589543 2.83192243 6.8125 2.6875 C6.06291016 2.62626953 5.31332031 2.56503906 4.54101562 2.50195312 C2.69277255 2.34891389 0.8461665 2.17633121 -1 2 C-0.67 1.34 -0.34 0.68 0 0 Z " fill="#85F5FA" transform="translate(1000,696)"/>
<path d="M0 0 C1.32 0 2.64 0 4 0 C4 0.99 4 1.98 4 3 C4.66 3 5.32 3 6 3 C6 3.66 6 4.32 6 5 C8.97 5.495 8.97 5.495 12 6 C12.33 7.98 12.66 9.96 13 12 C10.12333727 10.66938508 7.78863364 9.17712023 5.375 7.125 C4.78460937 6.63257813 4.19421875 6.14015625 3.5859375 5.6328125 C1.88194158 3.87845217 0.97489613 2.22971292 0 0 Z " fill="#DBDD35" transform="translate(820,364)"/>
<path d="M0 0 C1.45133294 3.88957229 0.55328787 6.91487286 -0.375 10.875 C-1.3838274 15.24029985 -2.30943585 19.57226517 -3 24 C-3.33 24 -3.66 24 -4 24 C-4.48597288 15.86445406 -3.69826783 7.39653567 0 0 Z " fill="#C7F2B4" transform="translate(903,336)"/>
<path d="M0 0 C-1.41601714 0.48108275 -2.83284437 0.95978141 -4.25 1.4375 C-5.03890625 1.70433594 -5.8278125 1.97117187 -6.640625 2.24609375 C-10.29477301 3.41372714 -13.39952444 4.12667459 -17.25 4.0625 C-19.10625 4.0315625 -19.10625 4.0315625 -21 4 C-18.20815944 2.48696169 -15.66897136 1.57817607 -12.5625 0.9375 C-11.77746094 0.77507812 -10.99242188 0.61265625 -10.18359375 0.4453125 C-9.46300781 0.29835938 -8.74242188 0.15140625 -8 0 C-6.576875 -0.3403125 -6.576875 -0.3403125 -5.125 -0.6875 C-3 -1 -3 -1 0 0 Z " fill="#06BF45" transform="translate(105,1083)"/>
<path d="M0 0 C8.20603814 -0.43960919 14.1144606 1.48136477 21 6 C18.33597054 7.33201473 17.4413616 6.69751146 14.6484375 5.78515625 C13.79765625 5.51123047 12.946875 5.23730469 12.0703125 4.95507812 C11.18085937 4.66052734 10.29140625 4.36597656 9.375 4.0625 C8.4778125 3.77181641 7.580625 3.48113281 6.65625 3.18164062 C4.43526435 2.46100166 2.21675021 1.73354395 0 1 C0 0.67 0 0.34 0 0 Z " fill="#7CFCCD" transform="translate(68,809)"/>
<path d="M0 0 C2.16874252 0.50603992 3.99967627 0.99983813 6 2 C11.04375319 2.30351789 16.09260374 2.308639 21 1 C21 1.66 21 2.32 21 3 C17.25720677 5.49519548 13.33731086 5.54115424 9 5 C5.48317864 3.93741265 2.6318272 2.6318272 0 0 Z " fill="#21BE21" transform="translate(925,1358)"/>
<path d="M0 0 C1.58206057 0.00667536 3.16410534 0.0186375 4.74609375 0.03515625 C5.55240234 0.03966797 6.35871094 0.04417969 7.18945312 0.04882812 C9.18753131 0.06065107 11.18557158 0.07858711 13.18359375 0.09765625 C13.18359375 0.42765625 13.18359375 0.75765625 13.18359375 1.09765625 C12.06339844 1.23042969 10.94320312 1.36320312 9.7890625 1.5 C8.31638646 1.67822194 6.84373128 1.85661636 5.37109375 2.03515625 C4.63310547 2.12216797 3.89511719 2.20917969 3.13476562 2.29882812 C0.01626254 2.67982171 -2.82748747 3.10134999 -5.81640625 4.09765625 C-7.21080289 4.16431001 -8.608105 4.18303824 -10.00390625 4.16015625 C-11.89109375 4.12921875 -11.89109375 4.12921875 -13.81640625 4.09765625 C-13.81640625 3.76765625 -13.81640625 3.43765625 -13.81640625 3.09765625 C-12.85927734 2.89849609 -12.85927734 2.89849609 -11.8828125 2.6953125 C-11.05652344 2.51871094 -10.23023437 2.34210938 -9.37890625 2.16015625 C-8.55519531 1.98613281 -7.73148437 1.81210938 -6.8828125 1.6328125 C-0.64138304 0.01641205 -0.64138304 0.01641205 0 0 Z " fill="#03BA48" transform="translate(129.81640625,1076.90234375)"/>
<path d="M0 0 C0.66 0.33 1.32 0.66 2 1 C0.4422692 4.82352106 -1.91595258 7.29205593 -5 10 C-5.99 10 -6.98 10 -8 10 C-6.34908222 5.70761377 -3.26245434 3.1206085 0 0 Z " fill="#ADF6D2" transform="translate(852,355)"/>
<path d="M0 0 C0.66 0.33 1.32 0.66 2 1 C0.625 3.5 0.625 3.5 -1 6 C-1.66 6 -2.32 6 -3 6 C-3.66 7.98 -4.32 9.96 -5 12 C-5.66 12 -6.32 12 -7 12 C-7.12375 12.804375 -7.2475 13.60875 -7.375 14.4375 C-7.58125 15.283125 -7.7875 16.12875 -8 17 C-8.66 17.33 -9.32 17.66 -10 18 C-10 16.68 -10 15.36 -10 14 C-9.34 14 -8.68 14 -8 14 C-8 13.01 -8 12.02 -8 11 C-7.34 11 -6.68 11 -6 11 C-6 9.68 -6 8.36 -6 7 C-5.34 7 -4.68 7 -4 7 C-4 6.34 -4 5.68 -4 5 C-3.01 4.34 -2.02 3.68 -1 3 C-0.67 2.01 -0.34 1.02 0 0 Z " fill="#49C9A0" transform="translate(817,236)"/>
<path d="M0 0 C1.32 0.33 2.64 0.66 4 1 C1.7136988 2.36402043 -0.57821749 3.71634274 -2.875 5.0625 C-3.85146484 5.64741211 -3.85146484 5.64741211 -4.84765625 6.24414062 C-6.53065725 7.22444533 -8.26296199 8.11898432 -10 9 C-10.66 8.67 -11.32 8.34 -12 8 C-11.67 7.01 -11.34 6.02 -11 5 C-7.6875 3.875 -7.6875 3.875 -4 3 C-3.195625 2.79375 -2.39125 2.5875 -1.5625 2.375 C-1.046875 2.25125 -0.53125 2.1275 0 2 C0 1.34 0 0.68 0 0 Z " fill="#7EFCD3" transform="translate(848,851)"/>
<path d="M0 0 C0.66 0 1.32 0 2 0 C3.4606285 2.64738916 4 3.89448334 4 7 C4.66 7 5.32 7 6 7 C6 8.32 6 9.64 6 11 C6.99 11 7.98 11 9 11 C8.67 13.31 8.34 15.62 8 18 C5.84575398 14.76863097 4.37764626 11.43389904 2.875 7.875 C2.59785156 7.22917969 2.32070313 6.58335937 2.03515625 5.91796875 C0 1.13585283 0 1.13585283 0 0 Z " fill="#26C7BA" transform="translate(973,251)"/>
<path d="M0 0 C0.66 0 1.32 0 2 0 C2.7282448 4.99367864 3.38487182 9.99109914 4 15 C3.01 15.66 2.02 16.32 1 17 C0.67 11.39 0.34 5.78 0 0 Z " fill="#13CF5E" transform="translate(39,1008)"/>
<path d="M0 0 C7.05582926 1.94290951 12.8653455 5.04257152 19 9 C18.01 9.495 18.01 9.495 17 10 C14.86328125 9.109375 14.86328125 9.109375 12.3125 7.75 C8.26369142 5.64038856 4.21820351 3.74230145 0 2 C0 1.34 0 0.68 0 0 Z " fill="#14C446" transform="translate(57,895)"/>
<path d="M0 0 C-2.12282669 1.00460531 -4.24833021 2.00355602 -6.375 3 C-8.15003906 3.8353125 -8.15003906 3.8353125 -9.9609375 4.6875 C-13 6 -13 6 -15 6 C-15 5.34 -15 4.68 -15 4 C-14.34 4 -13.68 4 -13 4 C-12.67 3.01 -12.34 2.02 -12 1 C-10.29296875 0.234375 -10.29296875 0.234375 -8.1875 -0.25 C-7.50042969 -0.42015625 -6.81335938 -0.5903125 -6.10546875 -0.765625 C-3.80500179 -1.02170666 -2.19370273 -0.69015367 0 0 Z " fill="#82FCDA" transform="translate(886,835)"/>
<path d="M0 0 C0.86625 0.37125 0.86625 0.37125 1.75 0.75 C0.5625 3.1875 0.5625 3.1875 -1.25 5.75 C-3.9375 6.5625 -3.9375 6.5625 -6.25 6.75 C-6.25 3.75 -6.25 3.75 -4.5 1.5 C-2.25 -0.25 -2.25 -0.25 0 0 Z " fill="#D2FDFC" transform="translate(48.25,217.25)"/>
<path d="M0 0 C1.32 0.33 2.64 0.66 4 1 C-1.28 3.97 -6.56 6.94 -12 10 C-12.33 9.34 -12.66 8.68 -13 8 C-11.02 7.34 -9.04 6.68 -7 6 C-7 5.34 -7 4.68 -7 4 C-6.01 4 -5.02 4 -4 4 C-3.67 3.01 -3.34 2.02 -3 1 C-2.01 1.33 -1.02 1.66 0 2 C0 1.34 0 0.68 0 0 Z " fill="#7DFCD0" transform="translate(752,907)"/>
<path d="M0 0 C0.94875 0.04125 1.8975 0.0825 2.875 0.125 C-0.39214042 2.30309362 -3.8000176 4.01665864 -7.3125 5.75 C-7.96669922 6.07484375 -8.62089844 6.3996875 -9.29492188 6.734375 C-10.90404812 7.5330654 -12.51440455 8.32927649 -14.125 9.125 C-13.87109375 7.2265625 -13.87109375 7.2265625 -13.125 5.125 C-11.34765625 4.1484375 -11.34765625 4.1484375 -9.1875 3.5 C-5.55479017 2.37920023 -3.74688777 0.14987551 0 0 Z " fill="#17CDEB" transform="translate(639.125,899.875)"/>
<path d="M0 0 C3.62528568 -0.20140476 5.86501708 0.14223235 9 2 C9 2.66 9 3.32 9 4 C10.32 4 11.64 4 13 4 C13 4.66 13 5.32 13 6 C13.99 6 14.98 6 16 6 C16 6.66 16 7.32 16 8 C10.31497465 6.35433477 5.23318364 3.70967216 0 1 C0 0.67 0 0.34 0 0 Z " fill="#7BFAC4" transform="translate(112,825)"/>
<path d="M0 0 C-10.54332167 4.71084585 -10.54332167 4.71084585 -16 6 C-16.66 5.67 -17.32 5.34 -18 5 C-4.86101549 -1.86962134 -4.86101549 -1.86962134 0 0 Z " fill="#3ACA3A" transform="translate(923,821)"/>
<path d="M0 0 C1.9955516 3.99110319 2.19546065 5.69986566 2 10 C3.65 9.67 5.3 9.34 7 9 C2.25 12.875 2.25 12.875 0 14 C0 9.38 0 4.76 0 0 Z " fill="#1FC7E1" transform="translate(71,720)"/>
<path d="M0 0 C0.33 0.66 0.66 1.32 1 2 C0.34 2 -0.32 2 -1 2 C-1 3.32 -1 4.64 -1 6 C-2.32 6 -3.64 6 -5 6 C-8.21829104 7.92293518 -8.21829104 7.92293518 -11 10 C-11.66 9.67 -12.32 9.34 -13 9 C-11.20966193 7.68568828 -9.41768797 6.3736047 -7.625 5.0625 C-6.62726562 4.33160156 -5.62953125 3.60070312 -4.6015625 2.84765625 C-2 1 -2 1 0 0 Z " fill="#13C347" transform="translate(903,935)"/>
<path d="M0 0 C2.475 0.495 2.475 0.495 5 1 C5 1.66 5 2.32 5 3 C5.7425 3.20625 6.485 3.4125 7.25 3.625 C10.79231177 5.39615589 12.02446841 7.63427951 14 11 C13.67 11.66 13.34 12.32 13 13 C12.34644531 12.20335937 12.34644531 12.20335937 11.6796875 11.390625 C8.07207116 7.11146102 4.77040209 3.90878176 0 1 C0 0.67 0 0.34 0 0 Z " fill="#13CF5D" transform="translate(164,1040)"/>
<path d="M0 0 C4.29 0 8.58 0 13 0 C13 0.33 13 0.66 13 1 C6.56971459 2.32388229 0.5705166 3.24794402 -6 3 C-6 2.67 -6 2.34 -6 2 C-4.02 2 -2.04 2 0 2 C0 1.34 0 0.68 0 0 Z " fill="#7DFCCE" transform="translate(608,959)"/>
<path d="M0 0 C2.31 0 4.62 0 7 0 C6.42507813 0.27714844 5.85015625 0.55429687 5.2578125 0.83984375 C3.04479811 1.9769809 0.97283971 3.22642338 -1.125 4.5625 C-3.06541563 5.79631145 -4.94304025 6.97152013 -7 8 C-7 6.68 -7 5.36 -7 4 C-6.01 4 -5.02 4 -4 4 C-3.67 3.01 -3.34 2.02 -3 1 C-2.01 1.33 -1.02 1.66 0 2 C0 1.34 0 0.68 0 0 Z " fill="#E2C62C" transform="translate(855,351)"/>
<path d="M0 0 C0.99 0.495 0.99 0.495 2 1 C2 1.66 2 2.32 2 3 C2.66 3 3.32 3 4 3 C4.86366822 4.78710586 5.71568594 6.5798465 6.5625 8.375 C7.27599609 9.87160156 7.27599609 9.87160156 8.00390625 11.3984375 C8.33261719 12.25695312 8.66132812 13.11546875 9 14 C8.67 14.66 8.34 15.32 8 16 C6.35 13.03 4.7 10.06 3 7 C2.34 7 1.68 7 1 7 C0.67 4.69 0.34 2.38 0 0 Z " fill="#B3DD5D" transform="translate(968,245)"/>
<path d="M0 0 C6.625 0.75 6.625 0.75 10 3 C9.67 3.66 9.34 4.32 9 5 C5.625 4.75 5.625 4.75 2 4 C0.5625 1.9375 0.5625 1.9375 0 0 Z " fill="#D5FCFD" transform="translate(95,212)"/>
<path d="M0 0 C-2.09950586 0.86555948 -4.2047907 1.71711277 -6.3125 2.5625 C-8.07013672 3.27599609 -8.07013672 3.27599609 -9.86328125 4.00390625 C-13 5 -13 5 -16 4 C-15.67 3.34 -15.34 2.68 -15 2 C-13.02 2 -11.04 2 -9 2 C-9 1.34 -9 0.68 -9 0 C-5.5657338 -0.85856655 -3.38317487 -0.97591583 0 0 Z " fill="#7FFCD1" transform="translate(919,821)"/>
<path d="M0 0 C0.66 0.66 1.32 1.32 2 2 C0.75 4.9375 0.75 4.9375 -1 8 C-3.1875 8.875 -3.1875 8.875 -5 9 C-4.125 4.25 -4.125 4.25 -3 2 C-2.01 2 -1.02 2 0 2 C0 1.34 0 0.68 0 0 Z " fill="#BDF6DB" transform="translate(909,327)"/>
<path d="M0 0 C4.20626034 1.50223584 5.73900021 4.28550034 8 8 C5.625 7.8125 5.625 7.8125 3 7 C1.8125 4.5 1.8125 4.5 1 2 C0.34 1.67 -0.32 1.34 -1 1 C-0.67 0.67 -0.34 0.34 0 0 Z " fill="#ACFAFB" transform="translate(214,287)"/>
<path d="M0 0 C0.99 0.33 1.98 0.66 3 1 C3.44534366 7.95230941 3.67289916 12.59696035 -1 18 C-1 15 -1 15 0 12.8125 C1.35347425 9.00585366 1.19852475 6.03666986 1 2 C0.67 1.34 0.34 0.68 0 0 Z " fill="#21BD20" transform="translate(952,1338)"/>
<path d="M0 0 C1.485 0.99 1.485 0.99 3 2 C3.65793917 6.82488726 2.37813717 9.83825995 0 14 C-1.10370043 10.6888987 -0.92673641 8.75251051 -0.5625 5.3125 C-0.46066406 4.31863281 -0.35882813 3.32476563 -0.25390625 2.30078125 C-0.17011719 1.54152344 -0.08632812 0.78226563 0 0 Z " fill="#46D01F" transform="translate(121,1265)"/>
<path d="M0 0 C0.33 0.66 0.66 1.32 1 2 C0.2578125 4.20703125 0.2578125 4.20703125 -0.875 6.8125 C-2.3455877 10.21130585 -3.3829229 13.34348995 -4 17 C-4.33 17 -4.66 17 -5 17 C-5 14.36 -5 11.72 -5 9 C-4.34 9 -3.68 9 -3 9 C-3 7.35 -3 5.7 -3 4 C-2.34 4 -1.68 4 -1 4 C-0.67 2.68 -0.34 1.36 0 0 Z " fill="#37C3AC" transform="translate(804,258)"/>
<path d="M0 0 C4.29 0 8.58 0 13 0 C13 0.66 13 1.32 13 2 C14.98 2 16.96 2 19 2 C19 2.33 19 2.66 19 3 C12.4294834 3.24794402 6.43028541 2.32388229 0 1 C0 0.67 0 0.34 0 0 Z " fill="#32C1B2" transform="translate(901,205)"/>
<path d="M0 0 C-4.455 0.495 -4.455 0.495 -9 1 C-9 1.66 -9 2.32 -9 3 C-11.31 2.67 -13.62 2.34 -16 2 C-13.64451045 -0.35548955 -12.34285039 -0.58160378 -9.125 -1.25 C-8.26132812 -1.44078125 -7.39765625 -1.6315625 -6.5078125 -1.828125 C-4 -2 -4 -2 0 0 Z " fill="#15C34A" transform="translate(772,997)"/>
<path d="M0 0 C2.31 0.33 4.62 0.66 7 1 C7.33 1.99 7.66 2.98 8 4 C8.99 4 9.98 4 11 4 C11.66 5.32 12.32 6.64 13 8 C10.03216871 6.54331217 7.13584687 4.98767914 4.25 3.375 C3.45078125 2.92898438 2.6515625 2.48296875 1.828125 2.0234375 C1.22484375 1.68570313 0.6215625 1.34796875 0 1 C0 0.67 0 0.34 0 0 Z " fill="#18CBEF" transform="translate(195,783)"/>
<path d="M0 0 C0.66 0 1.32 0 2 0 C2 4.62 2 9.24 2 14 C1.67 14 1.34 14 1 14 C1 11.36 1 8.72 1 6 C0.01 6.33 -0.98 6.66 -2 7 C-2 6.01 -2 5.02 -2 4 C-1.34 4 -0.68 4 0 4 C-0.33 3.01 -0.66 2.02 -1 1 C-0.67 0.67 -0.34 0.34 0 0 Z " fill="#D1FDFD" transform="translate(1006,330)"/>
<path d="M0 0 C0.33 0 0.66 0 1 0 C0.67 2.64 0.34 5.28 0 8 C-0.99 7.67 -1.98 7.34 -3 7 C-3.33 5.02 -3.66 3.04 -4 1 C-2.68 1.33 -1.36 1.66 0 2 C0 1.34 0 0.68 0 0 Z " fill="#0EC3E6" transform="translate(135,243)"/>
<path d="M0 0 C0.66 0.99 1.32 1.98 2 3 C-0.64 2.34 -3.28 1.68 -6 1 C-6 1.99 -6 2.98 -6 4 C-6.66 4 -7.32 4 -8 4 C-8.33 4.66 -8.66 5.32 -9 6 C-9.6875 4.1875 -9.6875 4.1875 -10 2 C-7.6488286 -2.26149816 -4.16157467 -1.05930992 0 0 Z " fill="#35CC1E" transform="translate(938,1184)"/>
<path d="M0 0 C0.66 0.33 1.32 0.66 2 1 C-3.96774194 8.25806452 -3.96774194 8.25806452 -6 10 C-6.66 10 -7.32 10 -8 10 C-7.44449305 6.40094092 -6.25112752 5.00090201 -3.4375 2.75 C-2.79683594 2.22921875 -2.15617188 1.7084375 -1.49609375 1.171875 C-1.00238281 0.78515625 -0.50867188 0.3984375 0 0 Z " fill="#90F9FE" transform="translate(862,739)"/>
<path d="M0 0 C0.66 0 1.32 0 2 0 C2 3.3 2 6.6 2 10 C-2 8 -2 8 -3 6 C-2.34 6 -1.68 6 -1 6 C-0.67 4.02 -0.34 2.04 0 0 Z " fill="#D5C537" transform="translate(897,350)"/>
<path d="M0 0 C0.66 0 1.32 0 2 0 C3.42258812 3.82320557 4.24042276 6.91281305 4 11 C3.34 10.34 2.68 9.68 2 9 C2 8.01 2 7.02 2 6 C1.34 6 0.68 6 0 6 C0 4.02 0 2.04 0 0 Z " fill="#C9FBFD" transform="translate(128,241)"/>
<path d="M0 0 C0.33 0.66 0.66 1.32 1 2 C0.34 2 -0.32 2 -1 2 C-1.33 3.32 -1.66 4.64 -2 6 C-3.98 6.33 -5.96 6.66 -8 7 C-6.5361389 2.60841671 -4.02168662 2.12052567 0 0 Z " fill="#3BCD37" transform="translate(806,878)"/>
<path d="M0 0 C0 2.85602507 -0.3622683 4.48384316 -1.3125 7.125 C-1.55613281 7.82882812 -1.79976562 8.53265625 -2.05078125 9.2578125 C-3 11 -3 11 -6 12 C-5.54300722 6.97307937 -3.00758252 3.85103739 0 0 Z " fill="#90FBFD" transform="translate(953,724)"/>
<path d="M0 0 C0 3 0 3 -2 6 C-5.125 6.1875 -5.125 6.1875 -8 6 C-8 5.34 -8 4.68 -8 4 C-6.865625 3.525625 -5.73125 3.05125 -4.5625 2.5625 C-1.24259834 1.36377917 -1.24259834 1.36377917 0 0 Z " fill="#0DBD3E" transform="translate(592,1048)"/>
<path d="M0 0 C-1.65 0.33 -3.3 0.66 -5 1 C-5.33 1.99 -5.66 2.98 -6 4 C-7.65 3.67 -9.3 3.34 -11 3 C-10 1 -10 1 -7.1875 -0.1875 C-4.14038924 -0.96421451 -2.86250637 -1.10096399 0 0 Z " fill="#8AFCFE" transform="translate(995,699)"/>
<path d="M0 0 C0.66 0 1.32 0 2 0 C4.74219867 3.34880626 6.86153781 6.67076296 7.3125 11 C7.209375 11.66 7.10625 12.32 7 13 C6.67 11.68 6.34 10.36 6 9 C5.34 9 4.68 9 4 9 C2.68 6.03 1.36 3.06 0 0 Z " fill="#1DC0E1" transform="translate(176,267)"/>
<path d="M0 0 C0.66 0.33 1.32 0.66 2 1 C1.38080922 2.46080933 0.75443308 3.91857455 0.125 5.375 C-0.22304687 6.18710938 -0.57109375 6.99921875 -0.9296875 7.8359375 C-2 10 -2 10 -4 12 C-4.33 10.68 -4.66 9.36 -5 8 C-4.01 7.67 -3.02 7.34 -2 7 C-1.855625 6.21625 -1.71125 5.4325 -1.5625 4.625 C-1 2 -1 2 0 0 Z " fill="#20BD1E" transform="translate(91,1374)"/>
<path d="M0 0 C2 2 2 2 2 6 C2.66 6 3.32 6 4 6 C3.34 7.98 2.68 9.96 2 12 C1.67 12 1.34 12 1 12 C0.67 8.04 0.34 4.08 0 0 Z " fill="#14D05F" transform="translate(125,1046)"/>
<path d="M0 0 C7.50769231 0.61538462 7.50769231 0.61538462 10 2.5625 C10.33 3.036875 10.66 3.51125 11 4 C6.55129785 4.39253254 3.85756507 3.15305957 0 1 C0 0.67 0 0.34 0 0 Z " fill="#8FFAFD" transform="translate(664,900)"/>
<path d="M0 0 C1.41750563 0.11509661 2.83401169 0.24253658 4.25 0.375 C5.03890625 0.44460938 5.8278125 0.51421875 6.640625 0.5859375 C9.085877 1.01507113 10.84836903 1.78600638 13 3 C13 3.66 13 4.32 13 5 C11.39402675 4.54803755 9.79027492 4.08817673 8.1875 3.625 C6.84751953 3.24214844 6.84751953 3.24214844 5.48046875 2.8515625 C3 2 3 2 0 0 Z " fill="#80FDD2" transform="translate(90,816)"/>
<path d="M0 0 C0.99 0 1.98 0 3 0 C3 0.66 3 1.32 3 2 C3.99 2 4.98 2 6 2 C6 2.99 6 3.98 6 5 C6.66 5.33 7.32 5.66 8 6 C7.67 6.99 7.34 7.98 7 9 C5.5 7.6875 5.5 7.6875 4 6 C4 5.01 4 4.02 4 3 C3.34 3 2.68 3 2 3 C2 2.34 2 1.68 2 1 C1.34 0.67 0.68 0.34 0 0 Z " fill="#11C4E6" transform="translate(168,258)"/>
<path d="M0 0 C3.3 0 6.6 0 10 0 C10.33 0.66 10.66 1.32 11 2 C5.04296875 3.07421875 5.04296875 3.07421875 3 3 C2.01 2.01 1.02 1.02 0 0 Z " fill="#02BA47" transform="translate(981,1095)"/>
<path d="M0 0 C1.32 0.33 2.64 0.66 4 1 C2.71186658 1.83878455 1.41936744 2.67086783 0.125 3.5 C-0.59429688 3.9640625 -1.31359375 4.428125 -2.0546875 4.90625 C-4 6 -4 6 -6 6 C-5.34 4.68 -4.68 3.36 -4 2 C-2.68 2 -1.36 2 0 2 C0 1.34 0 0.68 0 0 Z " fill="#82FDD5" transform="translate(810,873)"/>
<path d="M0 0 C0.99 0.33 1.98 0.66 3 1 C0.525 5.455 0.525 5.455 -2 10 C-2.33 8.68 -2.66 7.36 -3 6 C-2.34 5.67 -1.68 5.34 -1 5 C-0.34444881 2.47266765 -0.34444881 2.47266765 0 0 Z " fill="#1BD1F0" transform="translate(764,808)"/>
<path d="M0 0 C0.99 0 1.98 0 3 0 C3.53229326 1.26607607 4.05044544 2.53810412 4.5625 3.8125 C4.85253906 4.52019531 5.14257812 5.22789062 5.44140625 5.95703125 C6 8 6 8 5 11 C3.35 7.37 1.7 3.74 0 0 Z " fill="#1CCFF3" transform="translate(61,693)"/>
<path d="M0 0 C1.67542976 0.28604898 3.34385343 0.61781233 5 1 C3.35 2.65 1.7 4.3 0 6 C-0.38218767 4.34385343 -0.71395102 2.67542976 -1 1 C-0.67 0.67 -0.34 0.34 0 0 Z " fill="#EEBF25" transform="translate(913,312)"/>
<path d="M0 0 C0.66 0.33 1.32 0.66 2 1 C2 2.32 2 3.64 2 5 C2.99 5 3.98 5 5 5 C5.33 5.99 5.66 6.98 6 8 C3.525 7.01 3.525 7.01 1 6 C1 5.01 1 4.02 1 3 C-0.32 2.67 -1.64 2.34 -3 2 C-2.01 1.34 -1.02 0.68 0 0 Z " fill="#15C6D9" transform="translate(943,216)"/>
<path d="M0 0 C8.19256018 0.35010941 8.19256018 0.35010941 11.5625 3.0625 C12.036875 3.701875 12.51125 4.34125 13 5 C11.39402675 4.54803755 9.79027492 4.08817673 8.1875 3.625 C6.84751953 3.24214844 6.84751953 3.24214844 5.48046875 2.8515625 C3 2 3 2 0 0 Z " fill="#3ABF9E" transform="translate(916,208)"/>
<path d="M0 0 C-6.45 4.09326923 -6.45 4.09326923 -9.234375 3.62109375 C-9.81703125 3.41613281 -10.3996875 3.21117187 -11 3 C-9.73581754 2.30034557 -8.46334598 1.61565237 -7.1875 0.9375 C-6.47980469 0.55464844 -5.77210938 0.17179688 -5.04296875 -0.22265625 C-3 -1 -3 -1 0 0 Z " fill="#3DC73D" transform="translate(904,828)"/>
<path d="M0 0 C0 0.66 0 1.32 0 2 C-2.64 2 -5.28 2 -8 2 C-8.33 1.34 -8.66 0.68 -9 0 C-5.62182575 -0.84454356 -3.32534757 -1.10844919 0 0 Z " fill="#7FF2F8" transform="translate(28,669)"/>
<path d="M0 0 C0.66 0.33 1.32 0.66 2 1 C-0.6598561 4.44216672 -3.90288286 4.99504674 -8 6 C-5.54080489 3.3651481 -3.42227589 1.25483449 0 0 Z " fill="#12C345" transform="translate(614,1035)"/>
<path d="M0 0 C0.59296875 0.20238281 1.1859375 0.40476562 1.796875 0.61328125 C0.50874158 1.4520658 -0.78375756 2.28414908 -2.078125 3.11328125 C-2.79742188 3.57734375 -3.51671875 4.04140625 -4.2578125 4.51953125 C-6.203125 5.61328125 -6.203125 5.61328125 -8.203125 5.61328125 C-8.203125 4.95328125 -8.203125 4.29328125 -8.203125 3.61328125 C-2.99894173 -0.52640999 -2.99894173 -0.52640999 0 0 Z " fill="#7FFCCD" transform="translate(792.203125,885.38671875)"/>
<path d="M0 0 C2.475 0.495 2.475 0.495 5 1 C5.33 1.99 5.66 2.98 6 4 C6.66 4 7.32 4 8 4 C8 4.66 8 5.32 8 6 C4.63408134 4.55746343 2.48952921 2.66735273 0 0 Z " fill="#80FBD2" transform="translate(205,883)"/>
<path d="M0 0 C2.31 0 4.62 0 7 0 C5.8125 1.5625 5.8125 1.5625 4 3 C1.3125 2.6875 1.3125 2.6875 -1 2 C-0.67 1.34 -0.34 0.68 0 0 Z " fill="#3DD332" transform="translate(955,810)"/>
<path d="M0 0 C1.32 0 2.64 0 4 0 C4 0.99 4 1.98 4 3 C4.66 3 5.32 3 6 3 C6.33 4.32 6.66 5.64 7 7 C3.42895561 5.12050295 1.45255699 3.82946843 0 0 Z " fill="#D0E144" transform="translate(820,364)"/>
<path d="M0 0 C0.66 0.33 1.32 0.66 2 1 C1 4 1 4 -1 5 C-1.33 5.99 -1.66 6.98 -2 8 C-2.99 7.67 -3.98 7.34 -5 7 C-3.47793991 4.37098712 -2.15634036 2.15634036 0 0 Z " fill="#15CCDF" transform="translate(805,254)"/>
<path d="M0 0 C1.32 0 2.64 0 4 0 C4 0.66 4 1.32 4 2 C5.65 2.33 7.3 2.66 9 3 C9 3.66 9 4.32 9 5 C5.22454612 3.90931332 2.52956528 3.0916909 0 0 Z " fill="#7FFBC9" transform="translate(132,835)"/>
<path d="M0 0 C0.99 0.33 1.98 0.66 3 1 C2.67 2.65 2.34 4.3 2 6 C1.01 6 0.02 6 -1 6 C-0.67 4.02 -0.34 2.04 0 0 Z " fill="#8AFBFC" transform="translate(839,770)"/>
<path d="M0 0 C2.64 0.99 5.28 1.98 8 3 C8 3.66 8 4.32 8 5 C5.125 4.75 5.125 4.75 2 4 C0.625 1.9375 0.625 1.9375 0 0 Z " fill="#35C7CA" transform="translate(835,379)"/>
<path d="M0 0 C0.66 0.99 1.32 1.98 2 3 C1.125 6.6875 1.125 6.6875 0 10 C-0.33 10 -0.66 10 -1 10 C-1.02689216 8.52093108 -1.04634621 7.04172517 -1.0625 5.5625 C-1.07410156 4.73878906 -1.08570312 3.91507813 -1.09765625 3.06640625 C-1 1 -1 1 0 0 Z " fill="#D4FDFD" transform="translate(31,245)"/>
<path d="M0 0 C2.475 0.495 2.475 0.495 5 1 C5.33 2.98 5.66 4.96 6 7 C1.125 2.25 1.125 2.25 0 0 Z " fill="#23C3BA" transform="translate(961,235)"/>
<path d="M0 0 C0.66 0 1.32 0 2 0 C1.67 1.65 1.34 3.3 1 5 C0.01 5.33 -0.98 5.66 -2 6 C-1.125 1.125 -1.125 1.125 0 0 Z " fill="#D7FDFD" transform="translate(38,226)"/>
<path d="M0 0 C1.98 0 3.96 0 6 0 C5.01 0.33 4.02 0.66 3 1 C3 1.66 3 2.32 3 3 C0.69 3.33 -1.62 3.66 -4 4 C-3.67 3.34 -3.34 2.68 -3 2 C-2.01 2 -1.02 2 0 2 C0 1.34 0 0.68 0 0 Z " fill="#B8D851" transform="translate(849,212)"/>
<path d="M0 0 C0 0.66 0 1.32 0 2 C-2.90600261 3.25664978 -4.79604584 4 -8 4 C-8 3.34 -8 2.68 -8 2 C-4.91190305 0.23537317 -3.76687864 0 0 0 Z " fill="#D4FEFD" transform="translate(59,212)"/>
</svg>
