<?xml version="1.0" encoding="UTF-8"?>
<!DOCTYPE svg PUBLIC "-//W3C//DTD SVG 1.1//EN" "http://www.w3.org/Graphics/SVG/1.1/DTD/svg11.dtd">
<svg xmlns="http://www.w3.org/2000/svg" version="1.1" width="736px" height="506px" style="shape-rendering:geometricPrecision; text-rendering:geometricPrecision; image-rendering:optimizeQuality; fill-rule:evenodd; clip-rule:evenodd;" xmlns:xlink="http://www.w3.org/1999/xlink">
<g><path style="opacity:1" fill="#fefefe00" d="M -0.5,-0.5 C 244.833,-0.5 490.167,-0.5 735.5,-0.5C 735.5,168.167 735.5,336.833 735.5,505.5C 490.167,505.5 244.833,505.5 -0.5,505.5C -0.5,336.833 -0.5,168.167 -0.5,-0.5 Z"/></g>
<g><path style="opacity:1" fill="#353131" d="M 323.5,55.5 C 324.315,56.8366 325.482,57.8366 327,58.5C 327.692,59.4368 327.525,60.1034 326.5,60.5C 325.167,60.5 323.833,60.5 322.5,60.5C 320.206,58.1818 317.539,57.5151 314.5,58.5C 303.473,58.3823 292.473,58.8823 281.5,60C 271.96,62.4025 262.626,65.4025 253.5,69C 230.833,80 208.167,91 185.5,102C 183.811,105.962 182.811,110.128 182.5,114.5C 181.662,114.158 181.328,113.492 181.5,112.5C 182.034,108.898 182.034,105.398 181.5,102C 153.104,93.8012 126.437,81.8012 101.5,66C 89.2242,58.0565 77.2242,49.7231 65.5,41C 64.6683,40.3123 64.0016,40.479 63.5,41.5C 48.3068,102.298 58.1401,158.631 93,210.5C 99.6665,219.329 106.5,227.996 113.5,236.5C 112.07,236.421 110.736,236.754 109.5,237.5C 108.227,238.257 108.227,238.923 109.5,239.5C 78.571,259.262 53.071,284.595 33,315.5C 30.4728,319.53 29.4728,323.864 30,328.5C 42.9975,321.333 56.3309,315 70,309.5C 75.6083,310.107 77.6083,313.107 76,318.5C 71.403,332.957 66.403,347.29 61,361.5C 60.3333,362.833 60.3333,364.167 61,365.5C 74.784,355.014 90.284,350.347 107.5,351.5C 97.5838,370.3 97.0838,389.3 106,408.5C 106.739,409.574 107.739,410.241 109,410.5C 122.513,403.991 136.68,399.658 151.5,397.5C 156.181,397.331 160.848,396.998 165.5,396.5C 165.5,398.167 165.5,399.833 165.5,401.5C 163.534,409.774 160.701,417.774 157,425.5C 156.289,432.215 156.622,438.882 158,445.5C 158.368,446.91 159.201,447.91 160.5,448.5C 164.909,446.082 169.575,445.249 174.5,446C 176.054,447.892 177.888,449.392 180,450.5C 185.252,445.249 191.085,440.749 197.5,437C 205.232,433.534 213.232,430.867 221.5,429C 239.796,427.749 258.129,427.082 276.5,427C 303.79,422.951 313.956,407.451 307,380.5C 303.124,372.251 299.958,363.751 297.5,355C 295.671,345.483 297.838,336.983 304,329.5C 309.097,324.4 314.764,320.067 321,316.5C 325.074,306.758 330.408,297.758 337,289.5C 337.862,287.913 338.529,286.246 339,284.5C 339.023,278.785 339.189,273.118 339.5,267.5C 341.718,268.924 343.218,270.924 344,273.5C 345.456,281.045 344.123,288.045 340,294.5C 336.667,299.167 333.333,303.833 330,308.5C 327.928,311.971 326.428,315.638 325.5,319.5C 337.609,321.049 349.609,320.383 361.5,317.5C 369.167,318.833 376.833,318.833 384.5,317.5C 396.372,320.494 408.372,321.16 420.5,319.5C 418.005,310.473 413.505,302.473 407,295.5C 402.93,288.669 401.597,281.335 403,273.5C 403.412,271.003 404.578,269.003 406.5,267.5C 407.84,268.688 408.507,270.188 408.5,272C 406.485,279.687 407.652,286.854 412,293.5C 418.001,300.827 423.001,308.827 427,317.5C 436.72,322.886 444.053,330.553 449,340.5C 450.457,344.741 450.791,349.074 450,353.5C 446.333,363.5 442.667,373.5 439,383.5C 434.041,408.779 444.208,423.279 469.5,427C 487.847,427.325 506.18,427.991 524.5,429C 540.592,432.212 554.592,439.378 566.5,450.5C 568.316,449.185 569.983,447.685 571.5,446C 576.717,445.386 581.717,446.219 586.5,448.5C 590.082,442.28 591.249,435.613 590,428.5C 586.117,418.019 582.95,407.353 580.5,396.5C 585.193,396.54 589.859,396.873 594.5,397.5C 609.989,399.552 624.655,404.218 638.5,411.5C 647.803,397.606 649.97,382.606 645,366.5C 643.477,361.38 641.644,356.38 639.5,351.5C 656.475,350.713 671.808,355.38 685.5,365.5C 685.833,365.167 686.167,364.833 686.5,364.5C 681.235,349.204 676.068,333.87 671,318.5C 670.24,310.273 673.74,307.773 681.5,311C 693.136,316.818 704.802,322.651 716.5,328.5C 717.044,324.048 716.211,319.715 714,315.5C 693.219,284.885 667.386,259.552 636.5,239.5C 637.376,239.631 638.043,239.298 638.5,238.5C 636.696,237.232 634.696,236.565 632.5,236.5C 684.103,180.316 700.77,114.983 682.5,40.5C 655.447,60.7033 626.447,77.87 595.5,92C 585.234,95.8107 574.901,99.3107 564.5,102.5C 563.833,103.167 563.167,103.833 562.5,104.5C 562.53,103.503 562.03,102.836 561,102.5C 544.13,94.9812 527.63,86.8146 511.5,78C 494.715,69.1027 477.048,62.7694 458.5,59C 449.167,58.3333 439.833,58.3333 430.5,59C 429.594,60.6995 429.261,62.5328 429.5,64.5C 429.672,65.4916 429.338,66.1583 428.5,66.5C 428.167,64.5 427.833,62.5 427.5,60.5C 426.282,59.8386 424.949,59.1719 423.5,58.5C 423.833,57.8333 424.167,57.1667 424.5,56.5C 426.291,55.8302 427.958,55.1635 429.5,54.5C 448.918,51.6695 467.918,53.8362 486.5,61C 512.208,73.1883 537.874,85.3549 563.5,97.5C 607.919,82.9615 648.252,61.1282 684.5,32C 685.483,31.4092 686.15,31.7425 686.5,33C 707.013,108.915 691.68,176.415 640.5,235.5C 672.495,255.996 698.662,282.329 719,314.5C 722.162,319.777 723.162,325.443 722,331.5C 719.847,333.444 717.347,333.944 714.5,333C 701.956,326.561 689.289,320.394 676.5,314.5C 676.167,315 675.833,315.5 675.5,316C 682.932,337.463 690.265,358.963 697.5,380.5C 696.998,381.521 696.332,381.688 695.5,381C 682.499,366.667 666.499,358.5 647.5,356.5C 655.812,377.621 653.812,397.621 641.5,416.5C 640.277,417.614 638.944,417.781 637.5,417C 621.984,408.329 605.317,403.162 587.5,401.5C 587.167,402.167 586.833,402.833 586.5,403.5C 591.261,412.973 594.261,422.973 595.5,433.5C 594.855,440.763 593.189,447.763 590.5,454.5C 585.585,453.18 580.585,452.18 575.5,451.5C 574.5,451.833 573.5,452.167 572.5,452.5C 570.979,455.054 569.646,457.721 568.5,460.5C 552.439,441.31 531.773,432.143 506.5,433C 493.833,432.667 481.167,432.333 468.5,432C 442.219,428.717 430.386,413.884 433,387.5C 434.507,382.136 436.007,376.803 437.5,371.5C 433.298,371.616 429.298,370.783 425.5,369C 421.29,364.622 416.957,360.455 412.5,356.5C 411.558,356.608 410.725,356.941 410,357.5C 407.873,361.589 405.373,365.423 402.5,369C 393.05,372.987 383.217,375.487 373,376.5C 361.958,375.659 351.624,372.659 342,367.5C 340.333,364.167 338.667,360.833 337,357.5C 336.275,356.941 335.442,356.608 334.5,356.5C 330.061,360.764 325.394,364.931 320.5,369C 316.986,370.562 313.319,371.395 309.5,371.5C 313.291,382.501 314.458,393.834 313,405.5C 310.335,416.333 303.835,423.833 293.5,428C 288.323,429.961 282.99,431.294 277.5,432C 256.377,431.669 235.377,433.002 214.5,436C 199.664,440.004 187.664,448.17 178.5,460.5C 177.146,457.036 175.146,453.87 172.5,451C 167.395,451.418 162.395,452.584 157.5,454.5C 154.625,451.386 152.791,447.719 152,443.5C 151.333,437.167 151.333,430.833 152,424.5C 154.531,418.115 157.031,411.782 159.5,405.5C 160.434,404.432 160.768,403.099 160.5,401.5C 157.287,401.19 154.287,401.523 151.5,402.5C 136.223,404.648 121.89,409.481 108.5,417C 107.5,417.667 106.5,417.667 105.5,417C 94.9574,403.197 91.4574,387.697 95,370.5C 96.1994,365.735 97.6994,361.069 99.5,356.5C 90.0535,356.807 81.0535,359.307 72.5,364C 64.5476,369.229 57.0476,375.063 50,381.5C 56.9018,359.622 63.7352,337.622 70.5,315.5C 66.0017,316.411 61.6683,317.911 57.5,320C 49.2925,324.603 40.9592,328.937 32.5,333C 26.6761,334.674 24.0094,332.507 24.5,326.5C 24.7469,321.925 25.9135,317.592 28,313.5C 48.6722,282.328 74.5055,256.328 105.5,235.5C 80.4827,206.467 63.6493,173.133 55,135.5C 50.8016,110.216 50.4683,84.8829 54,59.5C 55.5864,49.9097 58.0864,40.5764 61.5,31.5C 88.8617,53.1927 118.528,71.3593 150.5,86C 161.047,90.6267 171.88,94.4601 183,97.5C 206.894,86.1362 230.728,74.6362 254.5,63C 264.592,59.192 274.925,56.192 285.5,54C 298.262,53.0141 310.928,53.5141 323.5,55.5 Z"/></g>
<g><path style="opacity:1" fill="#201f20" d="M 632.5,236.5 C 634.696,236.565 636.696,237.232 638.5,238.5C 638.043,239.298 637.376,239.631 636.5,239.5C 633.157,238.217 629.824,238.384 626.5,240C 610.063,249.108 594.729,259.775 580.5,272C 569.167,282.333 557.833,292.667 546.5,303C 539.609,307.973 531.942,309.973 523.5,309C 522.5,308 521.5,307 520.5,306C 524.277,307.3 528.277,307.633 532.5,307C 540.295,303.54 547.295,298.874 553.5,293C 565.2,281.631 577.2,270.631 589.5,260C 597.205,253.485 605.538,247.985 614.5,243.5C 616.933,243.727 618.599,242.727 619.5,240.5C 623.576,238.364 627.91,237.03 632.5,236.5 Z"/></g>
<g><path style="opacity:1" fill="#3f3d3d" d="M 181.5,112.5 C 181.328,113.492 181.662,114.158 182.5,114.5C 181.792,119.186 181.292,123.853 181,128.5C 195.213,140.869 211.713,148.702 230.5,152C 211.604,154.713 192.604,156.213 173.5,156.5C 170.8,162.769 168.634,169.102 167,175.5C 185.637,185.545 205.47,191.879 226.5,194.5C 203.296,205.166 179.13,208.832 154,205.5C 151.467,209.203 150.134,213.203 150,217.5C 155.723,222.611 161.89,227.111 168.5,231C 179.208,236.022 189.874,241.022 200.5,246C 208.766,252.262 216.432,259.262 223.5,267C 227.86,270.511 232.527,273.511 237.5,276C 225.26,280.122 212.926,280.455 200.5,277C 183.229,272.043 167.562,264.043 153.5,253C 147.98,247.979 142.314,243.146 136.5,238.5C 134.972,239.861 133.305,241.028 131.5,242C 132.056,242.383 132.389,242.883 132.5,243.5C 130.456,242.492 128.456,241.492 126.5,240.5C 129.652,241.041 132.152,240.041 134,237.5C 157.833,198.829 173.666,157.163 181.5,112.5 Z"/></g>
<g><path style="opacity:1" fill="#1f1e1f" d="M 113.5,236.5 C 117.965,237.433 122.298,238.766 126.5,240.5C 128.456,241.492 130.456,242.492 132.5,243.5C 141.813,248.303 150.48,254.136 158.5,261C 172.5,273.667 186.5,286.333 200.5,299C 204.666,301.917 208.999,304.584 213.5,307C 217.214,307.896 220.714,307.396 224,305.5C 225.726,306.648 225.559,307.815 223.5,309C 219.833,309.667 216.167,309.667 212.5,309C 206.551,307.027 201.217,304.027 196.5,300C 174.386,276.967 149.719,257.3 122.5,241C 118.211,239.234 113.878,238.734 109.5,239.5C 108.227,238.923 108.227,238.257 109.5,237.5C 110.736,236.754 112.07,236.421 113.5,236.5 Z"/></g>
<g><path style="opacity:1" fill="#fafafa" d="M 147.5,218.5 C 152.339,222.501 157.339,226.334 162.5,230C 175.869,236.673 189.202,243.34 202.5,250C 209.469,255.968 216.136,262.301 222.5,269C 225.328,271.248 228.328,273.248 231.5,275C 214.047,278.242 197.38,275.909 181.5,268C 165.002,259.671 150.335,248.838 137.5,235.5C 140.861,229.816 144.194,224.149 147.5,218.5 Z"/></g>
<g><path style="opacity:1" fill="#413e3f" d="M 564.5,102.5 C 570.976,152.101 587.643,197.934 614.5,240C 616.134,240.494 617.801,240.66 619.5,240.5C 618.599,242.727 616.933,243.727 614.5,243.5C 614.611,242.883 614.944,242.383 615.5,242C 613.695,241.028 612.028,239.861 610.5,238.5C 600.93,246.906 590.93,254.739 580.5,262C 564.49,272.225 546.99,278.059 528,279.5C 523.811,279.187 519.644,278.687 515.5,278C 513.22,277.767 511.22,276.934 509.5,275.5C 513.464,273.851 517.131,271.684 520.5,269C 528.5,261.667 536.5,254.333 544.5,247C 556.68,240.744 569.013,234.744 581.5,229C 587.43,225.203 592.763,220.703 597.5,215.5C 595.525,211.889 593.858,208.223 592.5,204.5C 566.938,209.158 542.604,205.658 519.5,194C 535.857,192.661 551.523,188.661 566.5,182C 571.196,179.99 575.529,177.49 579.5,174.5C 578.102,168.305 576.102,162.305 573.5,156.5C 561.514,155.667 549.514,155.167 537.5,155C 530.057,154.769 522.724,153.769 515.5,152C 534.584,148.762 551.417,140.928 566,128.5C 565.041,120.525 563.875,112.525 562.5,104.5C 563.167,103.833 563.833,103.167 564.5,102.5 Z"/></g>
<g><path style="opacity:1" fill="#fbfafa" d="M 597.5,218.5 C 598.496,218.414 599.329,218.748 600,219.5C 601.829,223.828 604.162,227.828 607,231.5C 608.301,233.365 608.635,235.365 608,237.5C 592.607,252.12 575.107,263.62 555.5,272C 542.39,276.461 529.057,277.461 515.5,275C 526.425,266.746 536.758,257.746 546.5,248C 559.898,242.408 572.898,236.074 585.5,229C 590.134,226.189 594.134,222.689 597.5,218.5 Z"/></g>
<g><path style="opacity:1" fill="#f9f9f9" d="M 165.5,177.5 C 181.807,186.313 199.14,192.313 217.5,195.5C 214.068,197.48 210.402,198.98 206.5,200C 189.972,203.543 173.305,204.376 156.5,202.5C 159.308,194.073 162.308,185.74 165.5,177.5 Z"/></g>
<g><path style="opacity:1" fill="#f8f8f8" d="M 579.5,177.5 C 580.79,178.058 581.623,179.058 582,180.5C 584.929,187.785 587.762,195.118 590.5,202.5C 573.357,204.415 556.357,203.581 539.5,200C 535.622,198.986 531.956,197.486 528.5,195.5C 542.735,192.282 556.735,188.115 570.5,183C 573.672,181.303 576.672,179.47 579.5,177.5 Z"/></g>
<g><path style="opacity:1" fill="#f6f6f6" d="M 565.5,130.5 C 566.75,130.577 567.583,131.244 568,132.5C 568.714,139.686 570.214,146.686 572.5,153.5C 561.828,153.667 551.161,153.5 540.5,153C 537.044,152.82 533.711,152.153 530.5,151C 538.683,147.911 546.683,144.244 554.5,140C 558.612,137.288 562.278,134.122 565.5,130.5 Z"/></g>
<g><path style="opacity:1" fill="#f6f5f5" d="M 179.5,130.5 C 190.881,140.36 203.881,147.36 218.5,151.5C 203.88,153.117 189.214,153.784 174.5,153.5C 175.952,145.805 177.618,138.139 179.5,130.5 Z"/></g>
<g><path style="opacity:1" fill="#fcfcfc" d="M 314.5,58.5 C 315.398,59.1577 316.398,59.8243 317.5,60.5C 312.369,80.2254 311.202,100.225 314,120.5C 314.692,123.936 315.692,127.27 317,130.5C 323.673,110.483 332.007,91.1498 342,72.5C 343.314,70.1878 344.981,68.1878 347,66.5C 349.929,66.9094 352.262,68.2427 354,70.5C 358.091,96.8634 363.758,122.863 371,148.5C 372.333,151.167 373.667,151.167 375,148.5C 376.868,145.395 378.035,142.062 378.5,138.5C 379.924,136.485 380.59,134.152 380.5,131.5C 384.832,114.343 388.332,97.0092 391,79.5C 391.707,75.6649 392.874,71.9982 394.5,68.5C 397.902,65.8045 400.736,66.1379 403,69.5C 413.98,88.4191 422.646,108.419 429,129.5C 434.207,115.13 435.707,100.463 433.5,85.5C 433.428,78.1432 432.094,71.1432 429.5,64.5C 429.261,62.5328 429.594,60.6995 430.5,59C 439.833,58.3333 449.167,58.3333 458.5,59C 477.048,62.7694 494.715,69.1027 511.5,78C 527.63,86.8146 544.13,94.9812 561,102.5C 562.03,102.836 562.53,103.503 562.5,104.5C 563.875,112.525 565.041,120.525 566,128.5C 551.417,140.928 534.584,148.762 515.5,152C 522.724,153.769 530.057,154.769 537.5,155C 549.514,155.167 561.514,155.667 573.5,156.5C 576.102,162.305 578.102,168.305 579.5,174.5C 575.529,177.49 571.196,179.99 566.5,182C 551.523,188.661 535.857,192.661 519.5,194C 542.604,205.658 566.938,209.158 592.5,204.5C 593.858,208.223 595.525,211.889 597.5,215.5C 592.763,220.703 587.43,225.203 581.5,229C 569.013,234.744 556.68,240.744 544.5,247C 536.5,254.333 528.5,261.667 520.5,269C 517.131,271.684 513.464,273.851 509.5,275.5C 511.22,276.934 513.22,277.767 515.5,278C 519.644,278.687 523.811,279.187 528,279.5C 546.99,278.059 564.49,272.225 580.5,262C 590.93,254.739 600.93,246.906 610.5,238.5C 612.028,239.861 613.695,241.028 615.5,242C 614.944,242.383 614.611,242.883 614.5,243.5C 605.538,247.985 597.205,253.485 589.5,260C 577.2,270.631 565.2,281.631 553.5,293C 547.295,298.874 540.295,303.54 532.5,307C 528.277,307.633 524.277,307.3 520.5,306C 521.5,307 522.5,308 523.5,309C 531.942,309.973 539.609,307.973 546.5,303C 557.833,292.667 569.167,282.333 580.5,272C 594.729,259.775 610.063,249.108 626.5,240C 629.824,238.384 633.157,238.217 636.5,239.5C 667.386,259.552 693.219,284.885 714,315.5C 716.211,319.715 717.044,324.048 716.5,328.5C 704.802,322.651 693.136,316.818 681.5,311C 673.74,307.773 670.24,310.273 671,318.5C 676.068,333.87 681.235,349.204 686.5,364.5C 686.167,364.833 685.833,365.167 685.5,365.5C 671.808,355.38 656.475,350.713 639.5,351.5C 641.644,356.38 643.477,361.38 645,366.5C 649.97,382.606 647.803,397.606 638.5,411.5C 624.655,404.218 609.989,399.552 594.5,397.5C 589.928,395.442 585.262,395.109 580.5,396.5C 582.95,407.353 586.117,418.019 590,428.5C 591.249,435.613 590.082,442.28 586.5,448.5C 581.717,446.219 576.717,445.386 571.5,446C 569.983,447.685 568.316,449.185 566.5,450.5C 554.592,439.378 540.592,432.212 524.5,429C 506.18,427.991 487.847,427.325 469.5,427C 444.208,423.279 434.041,408.779 439,383.5C 442.667,373.5 446.333,363.5 450,353.5C 450.791,349.074 450.457,344.741 449,340.5C 444.053,330.553 436.72,322.886 427,317.5C 423.001,308.827 418.001,300.827 412,293.5C 407.652,286.854 406.485,279.687 408.5,272C 408.507,270.188 407.84,268.688 406.5,267.5C 404.578,269.003 403.412,271.003 403,273.5C 401.597,281.335 402.93,288.669 407,295.5C 413.505,302.473 418.005,310.473 420.5,319.5C 408.372,321.16 396.372,320.494 384.5,317.5C 376.735,316.188 369.068,316.188 361.5,317.5C 349.609,320.383 337.609,321.049 325.5,319.5C 326.428,315.638 327.928,311.971 330,308.5C 333.333,303.833 336.667,299.167 340,294.5C 344.123,288.045 345.456,281.045 344,273.5C 343.218,270.924 341.718,268.924 339.5,267.5C 339.189,273.118 339.023,278.785 339,284.5C 338.529,286.246 337.862,287.913 337,289.5C 330.408,297.758 325.074,306.758 321,316.5C 314.764,320.067 309.097,324.4 304,329.5C 297.838,336.983 295.671,345.483 297.5,355C 299.958,363.751 303.124,372.251 307,380.5C 313.956,407.451 303.79,422.951 276.5,427C 258.129,427.082 239.796,427.749 221.5,429C 213.232,430.867 205.232,433.534 197.5,437C 191.085,440.749 185.252,445.249 180,450.5C 177.888,449.392 176.054,447.892 174.5,446C 169.575,445.249 164.909,446.082 160.5,448.5C 159.201,447.91 158.368,446.91 158,445.5C 156.622,438.882 156.289,432.215 157,425.5C 160.701,417.774 163.534,409.774 165.5,401.5C 166.461,399.735 166.795,397.735 166.5,395.5C 161.269,395.444 156.269,396.111 151.5,397.5C 136.68,399.658 122.513,403.991 109,410.5C 107.739,410.241 106.739,409.574 106,408.5C 97.0838,389.3 97.5838,370.3 107.5,351.5C 90.284,350.347 74.784,355.014 61,365.5C 60.3333,364.167 60.3333,362.833 61,361.5C 66.403,347.29 71.403,332.957 76,318.5C 77.6083,313.107 75.6083,310.107 70,309.5C 56.3309,315 42.9975,321.333 30,328.5C 29.4728,323.864 30.4728,319.53 33,315.5C 53.071,284.595 78.571,259.262 109.5,239.5C 113.878,238.734 118.211,239.234 122.5,241C 149.719,257.3 174.386,276.967 196.5,300C 201.217,304.027 206.551,307.027 212.5,309C 216.167,309.667 219.833,309.667 223.5,309C 225.559,307.815 225.726,306.648 224,305.5C 220.714,307.396 217.214,307.896 213.5,307C 208.999,304.584 204.666,301.917 200.5,299C 186.5,286.333 172.5,273.667 158.5,261C 150.48,254.136 141.813,248.303 132.5,243.5C 132.389,242.883 132.056,242.383 131.5,242C 133.305,241.028 134.972,239.861 136.5,238.5C 142.314,243.146 147.98,247.979 153.5,253C 167.562,264.043 183.229,272.043 200.5,277C 212.926,280.455 225.26,280.122 237.5,276C 232.527,273.511 227.86,270.511 223.5,267C 216.432,259.262 208.766,252.262 200.5,246C 189.874,241.022 179.208,236.022 168.5,231C 161.89,227.111 155.723,222.611 150,217.5C 150.134,213.203 151.467,209.203 154,205.5C 179.13,208.832 203.296,205.166 226.5,194.5C 205.47,191.879 185.637,185.545 167,175.5C 168.634,169.102 170.8,162.769 173.5,156.5C 192.604,156.213 211.604,154.713 230.5,152C 211.713,148.702 195.213,140.869 181,128.5C 181.292,123.853 181.792,119.186 182.5,114.5C 182.811,110.128 183.811,105.962 185.5,102C 208.167,91 230.833,80 253.5,69C 262.626,65.4025 271.96,62.4025 281.5,60C 292.473,58.8823 303.473,58.3823 314.5,58.5 Z"/></g>
<g><path style="opacity:1" fill="#484647" d="M 269.5,357.5 C 270.5,357.5 271.5,357.5 272.5,357.5C 272.5,358.5 272.5,359.5 272.5,360.5C 271.5,360.5 270.5,360.5 269.5,360.5C 269.5,359.5 269.5,358.5 269.5,357.5 Z"/></g>
<g><path style="opacity:1" fill="#4b4b4b" d="M 472.5,357.5 C 473.978,357.238 475.311,357.571 476.5,358.5C 474.537,361.194 473.203,360.861 472.5,357.5 Z"/></g>
<g><path style="opacity:1" fill="#4d4c4d" d="M 464.5,355.5 C 465.586,355.62 466.253,356.287 466.5,357.5C 465.696,359.957 464.696,359.957 463.5,357.5C 463.863,356.817 464.196,356.15 464.5,355.5 Z"/></g>
<g><path style="opacity:1" fill="#545354" d="M 278.5,355.5 C 279.5,355.5 280.5,355.5 281.5,355.5C 280.5,360.833 279.5,360.833 278.5,355.5 Z"/></g>
<g><path style="opacity:1" fill="#4f4e4e" d="M 261.5,354.5 C 262.5,354.5 263.5,354.5 264.5,354.5C 264.5,355.5 264.5,356.5 264.5,357.5C 263.5,357.5 262.5,357.5 261.5,357.5C 261.5,356.5 261.5,355.5 261.5,354.5 Z"/></g>
<g><path style="opacity:1" fill="#3d3c3d" d="M 481.5,354.5 C 484.957,354.667 485.29,355.667 482.5,357.5C 481.614,356.675 481.281,355.675 481.5,354.5 Z"/></g>
<g><path style="opacity:1" fill="#f3f1f2" d="M 486.5,363.5 C 481.366,364.899 477.033,367.565 473.5,371.5C 470.554,373.27 467.72,375.27 465,377.5C 464.5,377.167 464,376.833 463.5,376.5C 464.524,375.148 465.524,373.815 466.5,372.5C 487.66,356.223 511.66,349.723 538.5,353C 547.298,353.689 555.965,355.022 564.5,357C 548.906,355.209 533.239,354.542 517.5,355C 510.409,355.87 503.409,357.203 496.5,359C 492.736,359.852 489.403,361.352 486.5,363.5 Z"/></g>
<g><path style="opacity:1" fill="#646263" d="M 486.5,363.5 C 489.403,361.352 492.736,359.852 496.5,359C 503.409,357.203 510.409,355.87 517.5,355C 533.239,354.542 548.906,355.209 564.5,357C 555.965,355.022 547.298,353.689 538.5,353C 511.66,349.723 487.66,356.223 466.5,372.5C 478.165,361.169 492.165,354.335 508.5,352C 527.785,349.62 546.785,350.954 565.5,356C 566.833,357 566.833,358 565.5,359C 558.181,358.607 550.847,357.94 543.5,357C 523.971,354.826 504.971,356.993 486.5,363.5 Z"/></g>
<g><path style="opacity:1" fill="#989697" d="M 355.5,320.5 C 352.456,322.011 349.122,322.678 345.5,322.5C 348.589,321.215 351.922,320.549 355.5,320.5 Z"/></g>
<g><path style="opacity:1" fill="#484647" d="M 625.5,314.5 C 630.64,313.512 635.974,313.179 641.5,313.5C 657.005,313.37 667.672,320.37 673.5,334.5C 650.179,333.753 626.846,333.253 603.5,333C 591.102,331.797 580.102,327.297 570.5,319.5C 586.222,318.243 601.888,316.576 617.5,314.5C 619.735,314.205 621.735,314.539 623.5,315.5C 607.864,317.686 592.197,319.686 576.5,321.5C 585.558,327.574 595.558,330.741 606.5,331C 627.364,331.183 648.197,331.683 669,332.5C 669.5,332.167 670,331.833 670.5,331.5C 665.301,322.567 657.634,317.067 647.5,315C 640.174,314.5 632.841,314.334 625.5,314.5 Z"/></g>
<g><path style="opacity:1" fill="#fcfcfc" d="M 345.5,322.5 C 349.122,322.678 352.456,322.011 355.5,320.5C 361.14,319.937 366.807,319.603 372.5,319.5C 384.167,320.365 395.833,321.365 407.5,322.5C 424.105,319.888 436.271,326.221 444,341.5C 446.259,350.309 444.759,358.476 439.5,366C 435.262,366.823 431.262,366.156 427.5,364C 423.797,360.633 420.464,356.966 417.5,353C 412.587,350.413 408.42,351.247 405,355.5C 403.679,360.352 400.846,363.852 396.5,366C 379.484,372.546 362.818,371.879 346.5,364C 344.666,359.995 342.333,356.328 339.5,353C 336.634,351.543 333.634,351.21 330.5,352C 326.797,355.367 323.464,359.034 320.5,363C 316.215,365.706 311.548,366.873 306.5,366.5C 304.031,360.756 302.365,354.756 301.5,348.5C 304.156,336.332 311.156,327.498 322.5,322C 330.142,322.206 337.809,322.372 345.5,322.5 Z"/></g>
<g><path style="opacity:1" fill="#3d393a" d="M 384.5,317.5 C 376.833,318.833 369.167,318.833 361.5,317.5C 369.068,316.188 376.735,316.188 384.5,317.5 Z"/></g>
<g><path style="opacity:1" fill="#4b494a" d="M 102.5,312.5 C 126.931,314.014 151.264,316.514 175.5,320C 167.383,326.704 158.05,330.704 147.5,332C 122.505,333.322 97.5048,333.989 72.5,334C 78.9753,321.622 88.9753,314.455 102.5,312.5 Z"/></g>
<g><path style="opacity:1" fill="#fafafa" d="M 625.5,314.5 C 632.841,314.334 640.174,314.5 647.5,315C 657.634,317.067 665.301,322.567 670.5,331.5C 670,331.833 669.5,332.167 669,332.5C 648.197,331.683 627.364,331.183 606.5,331C 595.558,330.741 585.558,327.574 576.5,321.5C 592.197,319.686 607.864,317.686 623.5,315.5C 624.492,315.672 625.158,315.338 625.5,314.5 Z"/></g>
<g><path style="opacity:1" fill="#fbfafa" d="M 99.5,314.5 C 106.175,314.334 112.842,314.5 119.5,315C 136.434,317.681 153.434,319.848 170.5,321.5C 161.009,327.386 150.676,330.552 139.5,331C 118.113,331.367 96.7796,331.7 75.5,332C 81.1378,322.853 89.1378,317.02 99.5,314.5 Z"/></g>
<g><path style="opacity:1" fill="#727171" d="M 641.5,313.5 C 635.974,313.179 630.64,313.512 625.5,314.5C 625.158,315.338 624.492,315.672 623.5,315.5C 621.735,314.539 619.735,314.205 617.5,314.5C 622.255,313.058 627.255,312.392 632.5,312.5C 635.686,312.502 638.686,312.835 641.5,313.5 Z"/></g>
<g><path style="opacity:1" fill="#434142" d="M 631.5,256.5 C 644.251,254.813 655.584,257.979 665.5,266C 670.134,269.632 674.467,273.632 678.5,278C 662.583,276.329 646.916,277.662 631.5,282C 618.101,287.533 605.101,293.866 592.5,301C 583.126,304.355 573.459,305.355 563.5,304C 560.578,303.583 557.911,302.583 555.5,301C 563.788,297.19 571.788,292.856 579.5,288C 591.224,279.277 603.224,270.944 615.5,263C 620.624,259.925 625.957,257.759 631.5,256.5 Z"/></g>
<g><path style="opacity:1" fill="#989596" d="M 440.5,279.5 C 449.739,281.18 459.073,281.846 468.5,281.5C 462.013,282.654 455.346,282.821 448.5,282C 445.621,281.454 442.954,280.621 440.5,279.5 Z"/></g>
<g><path style="opacity:1" fill="#353030" d="M 489.5,213.5 C 499.85,213.44 510.183,213.774 520.5,214.5C 531.253,215.714 541.92,217.548 552.5,220C 554.5,221.333 556.5,222.667 558.5,224C 554.833,224.667 551.167,224.667 547.5,224C 539.462,223.025 531.462,221.859 523.5,220.5C 519.429,253.896 501.095,274.229 468.5,281.5C 459.073,281.846 449.739,281.18 440.5,279.5C 426.923,275.297 414.756,268.63 404,259.5C 399.501,262.506 394.667,264.506 389.5,265.5C 389.178,263.278 389.845,261.444 391.5,260C 408.98,250.178 425.646,239.178 441.5,227C 456.28,218.148 472.28,213.648 489.5,213.5 Z"/></g>
<g><path style="opacity:1" fill="#454344" d="M 97.5,256.5 C 105.253,256.104 112.92,256.604 120.5,258C 136.575,266.09 151.575,275.757 165.5,287C 173.704,291.934 182.037,296.601 190.5,301C 188.365,302.381 186.032,303.381 183.5,304C 176.5,304.667 169.5,304.667 162.5,304C 146.713,296.94 131.046,289.607 115.5,282C 100.055,277.902 84.3881,276.568 68.5,278C 76.6814,268.627 86.3481,261.461 97.5,256.5 Z"/></g>
<g><path style="opacity:1" fill="#f9f9f9" d="M 633.5,257.5 C 649.697,257.431 663.031,263.598 673.5,276C 665.22,275.429 656.886,275.429 648.5,276C 629.313,279.763 611.646,287.096 595.5,298C 588.306,301.064 580.806,302.897 573,303.5C 568.728,303.179 564.562,302.346 560.5,301C 579.644,290.18 597.977,278.18 615.5,265C 621.485,262.166 627.485,259.666 633.5,257.5 Z"/></g>
<g><path style="opacity:1" fill="#faf9f9" d="M 101.5,257.5 C 112.779,256.802 123.112,259.635 132.5,266C 149.713,278.879 167.713,290.546 186.5,301C 175.261,304.555 164.261,303.888 153.5,299C 139.788,290.977 125.455,284.31 110.5,279C 97.9645,275.741 85.2978,274.741 72.5,276C 80.6041,267.287 90.2708,261.12 101.5,257.5 Z"/></g>
<g><path style="opacity:1" fill="#353131" d="M 239.5,213.5 C 250.568,213.217 261.568,213.884 272.5,215.5C 283.017,217.923 293.017,221.756 302.5,227C 318.354,239.178 335.02,250.178 352.5,260C 354.155,261.444 354.822,263.278 354.5,265.5C 349.333,264.506 344.499,262.506 340,259.5C 330.047,267.9 318.881,274.4 306.5,279C 258.347,288.093 229.681,268.593 220.5,220.5C 213.833,221.5 207.167,222.5 200.5,223.5C 201.609,222.71 202.942,222.21 204.5,222C 201.527,220.871 198.527,220.037 195.5,219.5C 198.258,218.239 201.258,217.406 204.5,217C 216.116,215.283 227.782,214.117 239.5,213.5 Z"/></g>
<g><path style="opacity:1" fill="#9f9d9e" d="M 186.5,223.5 C 188.948,224.473 191.615,224.806 194.5,224.5C 191.645,225.803 188.645,225.803 185.5,224.5C 185.624,223.893 185.957,223.56 186.5,223.5 Z"/></g>
<g><path style="opacity:1" fill="#fdfcfc" d="M 481.5,218.5 C 493.854,218.323 506.187,218.656 518.5,219.5C 512.127,259.503 488.794,278.336 448.5,276C 433.593,273.213 420.593,266.713 409.5,256.5C 424.931,243.929 441.597,233.096 459.5,224C 466.957,222.136 474.291,220.302 481.5,218.5 Z"/></g>
<g><path style="opacity:1" fill="#fcfcfc" d="M 229.5,218.5 C 256.808,215.393 282.142,220.893 305.5,235C 315.167,242.167 324.833,249.333 334.5,256.5C 313.645,275.369 289.645,280.869 262.5,273C 240.629,261.932 228.296,244.098 225.5,219.5C 227.099,219.768 228.432,219.434 229.5,218.5 Z"/></g>
<g><path style="opacity:1" fill="#302b2b" d="M 195.5,219.5 C 198.527,220.037 201.527,220.871 204.5,222C 202.942,222.21 201.609,222.71 200.5,223.5C 198.435,223.517 196.435,223.85 194.5,224.5C 191.615,224.806 188.948,224.473 186.5,223.5C 188.835,220.835 191.835,219.502 195.5,219.5 Z"/></g>
<g><path style="opacity:1" fill="#c9c6c7" d="M 489.5,213.5 C 493.319,212.834 497.319,212.501 501.5,212.5C 508.065,212.361 514.399,213.028 520.5,214.5C 510.183,213.774 499.85,213.44 489.5,213.5 Z"/></g>
<g><path style="opacity:1" fill="#cecbcb" d="M 239.5,213.5 C 246.989,212.344 254.655,212.178 262.5,213C 266.133,213.149 269.466,213.982 272.5,215.5C 261.568,213.884 250.568,213.217 239.5,213.5 Z"/></g>
<g><path style="opacity:1" fill="#a09e9f" d="M 380.5,131.5 C 380.59,134.152 379.924,136.485 378.5,138.5C 378.41,135.848 379.076,133.515 380.5,131.5 Z"/></g>
<g><path style="opacity:1" fill="#575454" d="M 429.5,64.5 C 432.094,71.1432 433.428,78.1432 433.5,85.5C 432.833,91.8333 432.167,98.1667 431.5,104.5C 432.059,91.6552 431.059,78.9886 428.5,66.5C 429.338,66.1583 429.672,65.4916 429.5,64.5 Z"/></g>
<g><path style="opacity:1" fill="#faf9f9" d="M 427.5,60.5 C 427.833,62.5 428.167,64.5 428.5,66.5C 431.059,78.9886 432.059,91.6552 431.5,104.5C 431.641,110.631 430.807,116.631 429,122.5C 426.279,114.059 423.279,105.726 420,97.5C 414.452,86.4048 408.952,75.4048 403.5,64.5C 411.397,62.5254 419.397,61.1921 427.5,60.5 Z"/></g>
<g><path style="opacity:1" fill="#3b3838" d="M 429.5,54.5 C 427.958,55.1635 426.291,55.8302 424.5,56.5C 424.167,57.1667 423.833,57.8333 423.5,58.5C 424.949,59.1719 426.282,59.8386 427.5,60.5C 419.397,61.1921 411.397,62.5254 403.5,64.5C 408.952,75.4048 414.452,86.4048 420,97.5C 423.279,105.726 426.279,114.059 429,122.5C 430.807,116.631 431.641,110.631 431.5,104.5C 432.167,98.1667 432.833,91.8333 433.5,85.5C 435.707,100.463 434.207,115.13 429,129.5C 422.646,108.419 413.98,88.4191 403,69.5C 400.736,66.1379 397.902,65.8045 394.5,68.5C 392.874,71.9982 391.707,75.6649 391,79.5C 388.332,97.0092 384.832,114.343 380.5,131.5C 379.076,133.515 378.41,135.848 378.5,138.5C 378.035,142.062 376.868,145.395 375,148.5C 373.667,151.167 372.333,151.167 371,148.5C 363.758,122.863 358.091,96.8634 354,70.5C 352.262,68.2427 349.929,66.9094 347,66.5C 344.981,68.1878 343.314,70.1878 342,72.5C 332.007,91.1498 323.673,110.483 317,130.5C 315.692,127.27 314.692,123.936 314,120.5C 311.202,100.225 312.369,80.2254 317.5,60.5C 316.398,59.8243 315.398,59.1577 314.5,58.5C 317.539,57.5151 320.206,58.1818 322.5,60.5C 321.5,60.5 320.5,60.5 319.5,60.5C 313.758,81.0259 313.091,101.693 317.5,122.5C 324.012,102.811 332.679,84.1439 343.5,66.5C 337.92,64.0289 332.254,62.0289 326.5,60.5C 327.525,60.1034 327.692,59.4368 327,58.5C 325.482,57.8366 324.315,56.8366 323.5,55.5C 340.4,58.8417 356.9,63.5084 373,69.5C 380.209,67.2076 387.376,64.7076 394.5,62C 406.006,58.7067 417.672,56.2067 429.5,54.5 Z"/></g>
<g><path style="opacity:1" fill="#fbfafa" d="M 355.5,69.5 C 361.544,71.2925 367.544,73.2925 373.5,75.5C 379.086,73.2036 384.753,71.2036 390.5,69.5C 387.149,89.2405 383.316,108.907 379,128.5C 377.798,134.773 375.798,140.773 373,146.5C 369.395,136.092 366.395,125.425 364,114.5C 361.643,99.4047 358.809,84.4047 355.5,69.5 Z"/></g>
<g><path style="opacity:1" fill="#f7f7f7" d="M 322.5,60.5 C 323.833,60.5 325.167,60.5 326.5,60.5C 332.254,62.0289 337.92,64.0289 343.5,66.5C 332.679,84.1439 324.012,102.811 317.5,122.5C 313.091,101.693 313.758,81.0259 319.5,60.5C 320.5,60.5 321.5,60.5 322.5,60.5 Z"/></g>
<g><path style="opacity:1" fill="#fafafa" d="M 632.5,236.5 C 627.91,237.03 623.576,238.364 619.5,240.5C 617.801,240.66 616.134,240.494 614.5,240C 587.643,197.934 570.976,152.101 564.5,102.5C 574.901,99.3107 585.234,95.8107 595.5,92C 626.447,77.87 655.447,60.7033 682.5,40.5C 700.77,114.983 684.103,180.316 632.5,236.5 Z"/></g>
<g><path style="opacity:1" fill="#8d8b8c" d="M 594.5,158.5 C 596.279,160.344 598.612,161.01 601.5,160.5C 599.052,161.473 596.385,161.806 593.5,161.5C 593.263,160.209 593.596,159.209 594.5,158.5 Z"/></g>
<g><path style="opacity:1" fill="#444243" d="M 673.5,56.5 C 674.492,64.3159 674.826,72.3159 674.5,80.5C 673.058,112.224 665.225,142.224 651,170.5C 641.764,187.07 629.097,200.403 613,210.5C 614.502,196.482 616.336,182.482 618.5,168.5C 615.042,169.394 611.375,169.394 607.5,168.5C 608.559,165.382 609.892,162.382 611.5,159.5C 611,159.167 610.5,158.833 610,158.5C 607.361,159.994 604.528,160.661 601.5,160.5C 598.612,161.01 596.279,160.344 594.5,158.5C 596.241,152.372 597.907,146.205 599.5,140C 599.167,139.167 598.833,138.333 598.5,137.5C 596.057,138.112 593.557,138.445 591,138.5C 587.757,138.693 584.757,138.027 582,136.5C 581.898,131.698 583.731,127.698 587.5,124.5C 583.288,122.407 579.955,119.407 577.5,115.5C 612.138,99.8612 644.138,80.1946 673.5,56.5 Z"/></g>
<g><path style="opacity:1" fill="#acaaab" d="M 673.5,56.5 C 673.56,55.9569 673.893,55.6236 674.5,55.5C 675.821,63.9909 675.821,72.3242 674.5,80.5C 674.826,72.3159 674.492,64.3159 673.5,56.5 Z"/></g>
<g><path style="opacity:1" fill="#b6b4b5" d="M 671.5,60.5 C 671.56,59.9569 671.893,59.6236 672.5,59.5C 673.816,65.3204 673.816,70.9871 672.5,76.5C 672.821,70.9738 672.488,65.6405 671.5,60.5 Z"/></g>
<g><path style="opacity:1" fill="#fcfcfc" d="M 671.5,60.5 C 672.488,65.6405 672.821,70.9738 672.5,76.5C 671.544,110.404 663.377,142.404 648,172.5C 640.058,186.375 629.391,197.708 616,206.5C 616.229,193.056 617.729,179.722 620.5,166.5C 620.539,162.886 619.539,162.719 617.5,166C 615.26,166.977 612.927,167.477 610.5,167.5C 611.531,163.573 612.865,159.739 614.5,156C 611.076,156.361 607.742,157.361 604.5,159C 601.854,159.497 599.187,159.664 596.5,159.5C 598.719,151.646 600.386,143.646 601.5,135.5C 595.811,136.67 590.144,136.67 584.5,135.5C 583.386,134.277 583.219,132.944 584,131.5C 586.312,128.354 588.812,125.354 591.5,122.5C 586.598,121.927 582.598,119.761 579.5,116C 612.909,101.806 643.576,83.3061 671.5,60.5 Z"/></g>
<g><path style="opacity:1" fill="#fbfafa" d="M 181.5,112.5 C 173.666,157.163 157.833,198.829 134,237.5C 132.152,240.041 129.652,241.041 126.5,240.5C 122.298,238.766 117.965,237.433 113.5,236.5C 106.5,227.996 99.6665,219.329 93,210.5C 58.1401,158.631 48.3068,102.298 63.5,41.5C 64.0016,40.479 64.6683,40.3123 65.5,41C 77.2242,49.7231 89.2242,58.0565 101.5,66C 126.437,81.8012 153.104,93.8012 181.5,102C 182.034,105.398 182.034,108.898 181.5,112.5 Z"/></g>
<g><path style="opacity:1" fill="#4a4748" d="M 85.5,145.5 C 79.6936,132.891 76.1936,119.558 75,105.5C 71.9534,88.9517 70.9534,72.285 72,55.5C 101.849,79.6811 134.349,99.6811 169.5,115.5C 166.834,119.67 163.168,122.503 158.5,124C 162.771,127.338 164.771,131.505 164.5,136.5C 159.025,138.346 153.358,139.013 147.5,138.5C 149.169,145.838 150.835,153.171 152.5,160.5C 146.931,162.018 141.598,161.351 136.5,158.5C 136.167,159 135.833,159.5 135.5,160C 136.697,162.894 138.03,165.727 139.5,168.5C 135.804,169.933 132.304,169.6 129,167.5C 130.173,180.88 132.006,194.214 134.5,207.5C 134.167,208.5 133.833,209.5 133.5,210.5C 109.476,194.795 93.4757,173.129 85.5,145.5 Z"/></g>
<g><path style="opacity:1" fill="#fcfcfc" d="M 85.5,145.5 C 82.6723,133.521 79.839,121.521 77,109.5C 74.8248,92.8922 73.8248,76.2256 74,59.5C 102.36,82.3292 133.194,101.329 166.5,116.5C 163.351,120.074 159.351,122.074 154.5,122.5C 158.269,125.934 161.269,129.934 163.5,134.5C 160.717,135.986 157.717,136.653 154.5,136.5C 151.145,136.276 147.812,135.943 144.5,135.5C 146.09,143.271 148.09,150.937 150.5,158.5C 144.392,160.19 138.726,159.19 133.5,155.5C 133.167,155.667 132.833,155.833 132.5,156C 134.034,159.601 135.367,163.268 136.5,167C 132.82,168.027 129.653,167.194 127,164.5C 127.446,177.414 128.946,190.247 131.5,203C 131.167,204.167 130.833,205.333 130.5,206.5C 119.854,199.021 110.687,190.021 103,179.5C 96.8738,168.266 91.0405,156.933 85.5,145.5 Z"/></g>
<g><path style="opacity:1" fill="#f8f7f7" d="M 155.5,364.5 C 157.199,364.34 158.866,364.506 160.5,365C 155.326,370.738 149.326,375.238 142.5,378.5C 133.348,379.053 124.348,379.72 115.5,380.5C 111.898,380.467 108.898,381.801 106.5,384.5C 104.79,378.145 105.623,372.145 109,366.5C 110.419,365.54 111.919,364.707 113.5,364C 124.533,363.587 135.533,364.087 146.5,365.5C 149.686,365.498 152.686,365.165 155.5,364.5 Z"/></g>
<g><path style="opacity:1" fill="#3e3c3d" d="M 278.5,364.5 C 279.5,364.5 280.5,364.5 281.5,364.5C 280.754,368.31 279.754,368.31 278.5,364.5 Z"/></g>
<g><path style="opacity:1" fill="#3f3b3c" d="M 286.5,364.5 C 287.5,364.5 288.5,364.5 289.5,364.5C 289.5,365.5 289.5,366.5 289.5,367.5C 288.5,367.5 287.5,367.5 286.5,367.5C 286.5,366.5 286.5,365.5 286.5,364.5 Z"/></g>
<g><path style="opacity:1" fill="#474546" d="M 463.5,364.5 C 464.5,364.5 465.5,364.5 466.5,364.5C 466.5,365.5 466.5,366.5 466.5,367.5C 465.5,367.5 464.5,367.5 463.5,367.5C 463.5,366.5 463.5,365.5 463.5,364.5 Z"/></g>
<g><path style="opacity:1" fill="#4e4c4d" d="M 455.5,364.5 C 456.5,364.5 457.5,364.5 458.5,364.5C 458.5,365.5 458.5,366.5 458.5,367.5C 457.5,367.5 456.5,367.5 455.5,367.5C 455.5,366.5 455.5,365.5 455.5,364.5 Z"/></g>
<g><path style="opacity:1" fill="#3a3738" d="M 142.5,378.5 C 149.326,375.238 155.326,370.738 160.5,365C 158.866,364.506 157.199,364.34 155.5,364.5C 155.5,364.167 155.5,363.833 155.5,363.5C 158.09,363.604 160.423,362.937 162.5,361.5C 163.932,361.733 164.432,362.4 164,363.5C 159.041,369.465 153.208,374.298 146.5,378C 145.207,378.49 143.873,378.657 142.5,378.5 Z"/></g>
<g><path style="opacity:1" fill="#5e5c5d" d="M 283.5,374.5 C 285.111,376.833 284.611,378.5 282,379.5C 279.014,377.68 276.514,375.347 274.5,372.5C 256.857,360.878 237.357,355.545 216,356.5C 204.413,356.797 192.913,357.63 181.5,359C 180.549,358.282 180.383,357.449 181,356.5C 182.419,355.54 183.919,354.707 185.5,354C 205.121,349.968 224.787,349.635 244.5,353C 259.319,357.072 272.319,364.238 283.5,374.5 Z"/></g>
<g><path style="opacity:1" fill="#f1f0f0" d="M 274.5,372.5 C 264.896,363.87 253.563,358.703 240.5,357C 232.582,355.369 224.582,354.535 216.5,354.5C 205.137,355.339 193.803,356.172 182.5,357C 206.933,350.716 231.267,351.049 255.5,358C 265.689,361.87 274.523,367.703 282,375.5C 282.688,376.332 282.521,376.998 281.5,377.5C 279.408,375.395 277.075,373.728 274.5,372.5 Z"/></g>
<g><path style="opacity:1" fill="#3c3c3c" d="M 257.5,367.5 C 261.31,368.754 261.31,369.754 257.5,370.5C 257.5,369.5 257.5,368.5 257.5,367.5 Z"/></g>
<g><path style="opacity:1" fill="#565455" d="M 486.5,363.5 C 482.342,366.414 478.009,369.081 473.5,371.5C 477.033,367.565 481.366,364.899 486.5,363.5 Z"/></g>
<g><path style="opacity:1" fill="#2f2d2e" d="M 485.5,367.5 C 487.465,367.948 487.798,368.948 486.5,370.5C 485.614,369.675 485.281,368.675 485.5,367.5 Z"/></g>
<g><path style="opacity:1" fill="#413f40" d="M 263.5,370.5 C 265.048,370.821 265.715,371.821 265.5,373.5C 262.752,373.598 262.086,372.598 263.5,370.5 Z"/></g>
<g><path style="opacity:1" fill="#302e2f" d="M 459.5,371.5 C 461.465,371.948 461.798,372.948 460.5,374.5C 459.614,373.675 459.281,372.675 459.5,371.5 Z"/></g>
<g><path style="opacity:1" fill="#403e3f" d="M 479.5,370.5 C 480.5,370.5 481.5,370.5 482.5,370.5C 482.5,371.5 482.5,372.5 482.5,373.5C 481.5,373.5 480.5,373.5 479.5,373.5C 479.5,372.5 479.5,371.5 479.5,370.5 Z"/></g>
<g><path style="opacity:1" fill="#3d3b3c" d="M 283.5,374.5 C 283.5,373.5 283.5,372.5 283.5,371.5C 284.5,371.5 285.5,371.5 286.5,371.5C 286.5,372.5 286.5,373.5 286.5,374.5C 285.5,374.5 284.5,374.5 283.5,374.5 Z"/></g>
<g><path style="opacity:1" fill="#3a3839" d="M 475.5,372.5 C 477.852,373.543 478.019,374.876 476,376.5C 474.232,375.318 474.065,373.985 475.5,372.5 Z"/></g>
<g><path style="opacity:1" fill="#5c5a5b" d="M 477.5,379.5 C 492.809,370.222 509.476,367.055 527.5,370C 540.588,372.252 553.255,375.919 565.5,381C 566.337,382.011 566.67,383.178 566.5,384.5C 556.183,382.013 545.85,379.513 535.5,377C 520.394,373.341 505.394,373.674 490.5,378C 483.618,380.943 476.951,384.11 470.5,387.5C 470.663,383 472.996,380.334 477.5,379.5 Z"/></g>
<g><path style="opacity:1" fill="#eae9ea" d="M 477.5,379.5 C 482.247,377.963 486.913,376.13 491.5,374C 517.212,368.187 541.878,371.187 565.5,383C 556.705,380.298 547.705,377.965 538.5,376C 523.134,372.797 507.801,372.797 492.5,376C 485.509,378.246 479.009,381.413 473,385.5C 472.5,385.333 472,385.167 471.5,385C 473.396,382.932 475.396,381.099 477.5,379.5 Z"/></g>
<g><path style="opacity:1" fill="#4a4849" d="M 268.5,372.5 C 269.586,372.62 270.253,373.287 270.5,374.5C 269.696,376.957 268.696,376.957 267.5,374.5C 267.863,373.817 268.196,373.15 268.5,372.5 Z"/></g>
<g><path style="opacity:1" fill="#464445" d="M 581.5,362.5 C 581.56,361.957 581.893,361.624 582.5,361.5C 583.795,362.098 585.128,362.598 586.5,363C 599.721,363.856 612.887,363.356 626,361.5C 631.36,361.396 636.026,363.063 640,366.5C 642.573,373.662 643.073,380.995 641.5,388.5C 638.729,384.911 635.062,382.744 630.5,382C 610.334,384.407 594,377.907 581.5,362.5 Z"/></g>
<g><path style="opacity:1" fill="#f9f9f9" d="M 615.5,363.5 C 622.284,363.08 628.95,363.58 635.5,365C 637.378,366.543 638.878,368.376 640,370.5C 640.667,375.167 640.667,379.833 640,384.5C 637.293,382.064 634.127,380.564 630.5,380C 612.931,383.145 598.264,378.145 586.5,365C 590.45,365.052 594.45,365.219 598.5,365.5C 604.392,365.533 610.059,364.867 615.5,363.5 Z"/></g>
<g><path style="opacity:1" fill="#555354" d="M 473.5,371.5 C 470.928,375.747 467.262,378.414 462.5,379.5C 461.68,375.778 463.013,373.445 466.5,372.5C 465.524,373.815 464.524,375.148 463.5,376.5C 464,376.833 464.5,377.167 465,377.5C 467.72,375.27 470.554,373.27 473.5,371.5 Z"/></g>
<g><path style="opacity:1" fill="#696768" d="M 142.5,378.5 C 139.45,380.101 136.116,381.101 132.5,381.5C 127.025,380.511 121.358,380.178 115.5,380.5C 124.348,379.72 133.348,379.053 142.5,378.5 Z"/></g>
<g><path style="opacity:1" fill="#636162" d="M 217.5,369.5 C 236.733,366.913 254.733,370.413 271.5,380C 273.846,381.013 275.513,382.679 276.5,385C 276.333,386.5 275.5,387.333 274,387.5C 261.669,378.669 247.835,374.336 232.5,374.5C 215.205,375.521 198.371,378.855 182,384.5C 181.167,384.167 180.333,383.833 179.5,383.5C 180.693,381.473 182.36,379.973 184.5,379C 195.493,375.34 206.493,372.173 217.5,369.5 Z"/></g>
<g><path style="opacity:1" fill="#eeeced" d="M 217.5,371.5 C 238.849,367.906 258.182,372.406 275.5,385C 274.5,385.667 273.5,385.667 272.5,385C 260.626,376.905 247.459,373.071 233,373.5C 215.521,373.605 198.688,376.938 182.5,383.5C 181.707,382.645 182.04,381.811 183.5,381C 194.795,377.18 206.128,374.014 217.5,371.5 Z"/></g>
<g><path style="opacity:1" fill="#424041" d="M 248.5,379.5 C 250.048,379.821 250.715,380.821 250.5,382.5C 247.752,382.598 247.086,381.598 248.5,379.5 Z"/></g>
<g><path style="opacity:1" fill="#585657" d="M 277.5,379.5 C 278.586,379.62 279.253,380.287 279.5,381.5C 278.696,383.957 277.696,383.957 276.5,381.5C 276.863,380.817 277.196,380.15 277.5,379.5 Z"/></g>
<g><path style="opacity:1" fill="#504e4f" d="M 466.5,379.5 C 467.586,379.62 468.253,380.287 468.5,381.5C 467.696,383.957 466.696,383.957 465.5,381.5C 465.863,380.817 466.196,380.15 466.5,379.5 Z"/></g>
<g><path style="opacity:1" fill="#424041" d="M 495.5,379.5 C 497.048,379.821 497.715,380.821 497.5,382.5C 494.752,382.598 494.086,381.598 495.5,379.5 Z"/></g>
<g><path style="opacity:1" fill="#3a3839" d="M 241.5,381.5 C 244.957,381.667 245.29,382.667 242.5,384.5C 241.614,383.675 241.281,382.675 241.5,381.5 Z"/></g>
<g><path style="opacity:1" fill="#444243" d="M 285.5,380.5 C 287.048,380.821 287.715,381.821 287.5,383.5C 284.752,383.598 284.086,382.598 285.5,380.5 Z"/></g>
<g><path style="opacity:1" fill="#3e3e3e" d="M 457.5,380.5 C 458.5,380.5 459.5,380.5 460.5,380.5C 460.5,381.5 460.5,382.5 460.5,383.5C 459.5,383.5 458.5,383.5 457.5,383.5C 457.5,382.5 457.5,381.5 457.5,380.5 Z"/></g>
<g><path style="opacity:1" fill="#3d3b3c" d="M 501.5,381.5 C 504.957,381.667 505.29,382.667 502.5,384.5C 501.614,383.675 501.281,382.675 501.5,381.5 Z"/></g>
<g><path style="opacity:1" fill="#4b4b4b" d="M 253.5,382.5 C 254.5,382.5 255.5,382.5 256.5,382.5C 256.5,383.5 256.5,384.5 256.5,385.5C 255.5,385.5 254.5,385.5 253.5,385.5C 253.5,384.5 253.5,383.5 253.5,382.5 Z"/></g>
<g><path style="opacity:1" fill="#4a4a4a" d="M 489.5,382.5 C 490.5,382.5 491.5,382.5 492.5,382.5C 492.5,383.5 492.5,384.5 492.5,385.5C 491.5,385.5 490.5,385.5 489.5,385.5C 489.5,384.5 489.5,383.5 489.5,382.5 Z"/></g>
<g><path style="opacity:1" fill="#403e3f" d="M 155.5,363.5 C 155.5,363.833 155.5,364.167 155.5,364.5C 152.686,365.165 149.686,365.498 146.5,365.5C 135.533,364.087 124.533,363.587 113.5,364C 111.919,364.707 110.419,365.54 109,366.5C 105.623,372.145 104.79,378.145 106.5,384.5C 108.898,381.801 111.898,380.467 115.5,380.5C 121.358,380.178 127.025,380.511 132.5,381.5C 126.824,381.334 121.157,381.501 115.5,382C 111.278,383.026 107.778,385.193 105,388.5C 102.683,381.336 103.016,374.336 106,367.5C 109.529,363.046 114.196,361.046 120,361.5C 131.776,363.135 143.61,363.802 155.5,363.5 Z"/></g>
<g><path style="opacity:1" fill="#535252" d="M 260.5,386.5 C 261.978,386.238 263.311,386.571 264.5,387.5C 262.537,390.194 261.203,389.861 260.5,386.5 Z"/></g>
<g><path style="opacity:1" fill="#3d3d3d" d="M 481.5,385.5 C 484.861,386.203 485.194,387.537 482.5,389.5C 481.571,388.311 481.238,386.978 481.5,385.5 Z"/></g>
<g><path style="opacity:1" fill="#efedee" d="M 185.5,405.5 C 192.496,402.337 199.162,398.671 205.5,394.5C 220.027,388.522 235.027,387.022 250.5,390C 255.725,391.279 260.391,393.612 264.5,397C 244.545,388.139 224.545,388.472 204.5,398C 197.477,401.682 190.477,405.015 183.5,408C 184.381,407.292 185.047,406.458 185.5,405.5 Z"/></g>
<g><path style="opacity:1" fill="#303030" d="M 463.5,387.5 C 465.465,387.948 465.798,388.948 464.5,390.5C 463.614,389.675 463.281,388.675 463.5,387.5 Z"/></g>
<g><path style="opacity:1" fill="#3f3e3f" d="M 279.5,387.5 C 280.5,387.5 281.5,387.5 282.5,387.5C 282.5,388.5 282.5,389.5 282.5,390.5C 281.5,390.5 280.5,390.5 279.5,390.5C 279.5,389.5 279.5,388.5 279.5,387.5 Z"/></g>
<g><path style="opacity:1" fill="#5d5b5c" d="M 562.5,406.5 C 564.104,407.287 564.771,408.62 564.5,410.5C 556.442,406.972 548.442,403.139 540.5,399C 530.187,394.922 519.52,392.422 508.5,391.5C 500.06,391.9 492.227,394.234 485,398.5C 484.51,399.793 484.343,401.127 484.5,402.5C 483.5,402.5 482.5,402.5 481.5,402.5C 481.567,400.599 481.233,398.766 480.5,397C 480.759,395.739 481.426,394.739 482.5,394C 499.371,385.248 516.705,384.248 534.5,391C 544.669,394.912 554.002,400.079 562.5,406.5 Z"/></g>
<g><path style="opacity:1" fill="#585657" d="M 185.5,405.5 C 185.047,406.458 184.381,407.292 183.5,408C 190.477,405.015 197.477,401.682 204.5,398C 224.545,388.472 244.545,388.139 264.5,397C 260.391,393.612 255.725,391.279 250.5,390C 235.027,387.022 220.027,388.522 205.5,394.5C 225.069,383.844 244.736,383.844 264.5,394.5C 265.429,395.689 265.762,397.022 265.5,398.5C 259.901,396.801 254.235,394.968 248.5,393C 236.624,391.108 224.958,392.108 213.5,396C 203.103,400.032 193.103,404.865 183.5,410.5C 181.91,407.83 182.577,406.163 185.5,405.5 Z"/></g>
<g><path style="opacity:1" fill="#4d4d4d" d="M 269.5,389.5 C 272.861,390.203 273.194,391.537 270.5,393.5C 269.571,392.311 269.238,390.978 269.5,389.5 Z"/></g>
<g><path style="opacity:1" fill="#403f3f" d="M 473.5,389.5 C 476.861,390.203 477.194,391.537 474.5,393.5C 473.571,392.311 473.238,390.978 473.5,389.5 Z"/></g>
<g><path style="opacity:1" fill="#edebec" d="M 562.5,406.5 C 562.631,407.376 562.298,408.043 561.5,408.5C 542.856,395.506 522.19,389.672 499.5,391C 493.886,392.482 488.553,394.649 483.5,397.5C 482.429,395.675 483.096,394.508 485.5,394C 503.934,386.488 522.267,386.822 540.5,395C 548.045,398.604 555.378,402.437 562.5,406.5 Z"/></g>
<g><path style="opacity:1" fill="#313030" d="M 503.5,393.5 C 505.465,393.948 505.798,394.948 504.5,396.5C 503.614,395.675 503.281,394.675 503.5,393.5 Z"/></g>
<g><path style="opacity:1" fill="#3c3a3b" d="M 239.5,393.5 C 242.957,393.667 243.29,394.667 240.5,396.5C 239.614,395.675 239.281,394.675 239.5,393.5 Z"/></g>
<g><path style="opacity:1" fill="#3e3d3d" d="M 276.5,394.5 C 277.5,394.5 278.5,394.5 279.5,394.5C 279.5,395.5 279.5,396.5 279.5,397.5C 278.5,397.5 277.5,397.5 276.5,397.5C 276.5,396.5 276.5,395.5 276.5,394.5 Z"/></g>
<g><path style="opacity:1" fill="#353334" d="M 466.5,394.5 C 468.465,394.948 468.798,395.948 467.5,397.5C 465.481,396.867 465.147,395.867 466.5,394.5 Z"/></g>
<g><path style="opacity:1" fill="#adaaa9" d="M 580.5,396.5 C 585.262,395.109 589.928,395.442 594.5,397.5C 589.859,396.873 585.193,396.54 580.5,396.5 Z"/></g>
<g><path style="opacity:1" fill="#706d6e" d="M 165.5,401.5 C 165.5,399.833 165.5,398.167 165.5,396.5C 160.848,396.998 156.181,397.331 151.5,397.5C 156.269,396.111 161.269,395.444 166.5,395.5C 166.795,397.735 166.461,399.735 165.5,401.5 Z"/></g>
<g><path style="opacity:1" fill="#3b3a3b" d="M 246.5,395.5 C 247.5,395.5 248.5,395.5 249.5,395.5C 248.754,399.31 247.754,399.31 246.5,395.5 Z"/></g>
<g><path style="opacity:1" fill="#3d3b3c" d="M 495.5,395.5 C 496.5,395.5 497.5,395.5 498.5,395.5C 497.754,399.31 496.754,399.31 495.5,395.5 Z"/></g>
<g><path style="opacity:1" fill="#474747" d="M 252.5,397.5 C 253.5,397.5 254.5,397.5 255.5,397.5C 255.5,398.5 255.5,399.5 255.5,400.5C 254.5,400.5 253.5,400.5 252.5,400.5C 252.5,399.5 252.5,398.5 252.5,397.5 Z"/></g>
<g><path style="opacity:1" fill="#484647" d="M 490.5,397.5 C 491.5,397.5 492.5,397.5 493.5,397.5C 493.5,398.5 493.5,399.5 493.5,400.5C 492.5,400.5 491.5,400.5 490.5,400.5C 490.5,399.5 490.5,398.5 490.5,397.5 Z"/></g>
<g><path style="opacity:1" fill="#434343" d="M 261.5,399.5 C 263.048,399.821 263.715,400.821 263.5,402.5C 260.752,402.598 260.086,401.598 261.5,399.5 Z"/></g>
<g><path style="opacity:1" fill="#9f9a9b" d="M 151.5,402.5 C 154.287,401.523 157.287,401.19 160.5,401.5C 160.768,403.099 160.434,404.432 159.5,405.5C 159.5,404.5 159.5,403.5 159.5,402.5C 156.833,402.5 154.167,402.5 151.5,402.5 Z"/></g>
<g><path style="opacity:1" fill="#525051" d="M 205.5,394.5 C 199.162,398.671 192.496,402.337 185.5,405.5C 188.754,402.529 192.42,400.029 196.5,398C 199.309,396.259 202.309,395.092 205.5,394.5 Z"/></g>
<g><path style="opacity:1" fill="#393939" d="M 271.5,400.5 C 273.625,401.368 273.791,402.368 272,403.5C 270.317,402.824 270.15,401.824 271.5,400.5 Z"/></g>
<g><path style="opacity:1" fill="#404040" d="M 472.5,400.5 C 474.048,400.821 474.715,401.821 474.5,403.5C 471.752,403.598 471.086,402.598 472.5,400.5 Z"/></g>
</svg>
